<mxfile host="app.diagrams.net" modified="2023-12-05T19:15:12.765Z" agent="Mozilla/5.0 (Windows NT 10.0; Win64; x64) AppleWebKit/537.36 (KHTML, like Gecko) Chrome/119.0.0.0 Safari/537.36" etag="1uqFBBqR1REkHddSOZOe" version="22.1.5" type="device">
  <diagram id="YIXA3A1On-W6W0BsnzNZ" name="Purchase API">
    <mxGraphModel dx="2261" dy="4245" grid="1" gridSize="10" guides="1" tooltips="1" connect="1" arrows="1" fold="1" page="1" pageScale="1" pageWidth="827" pageHeight="1169" math="0" shadow="0">
      <root>
        <mxCell id="0" />
        <mxCell id="1" parent="0" />
        <mxCell id="9p9Fck6Mg8pQs2x9gp-Q-1" value="&lt;h1&gt;&lt;font style=&quot;font-size: 11px&quot;&gt;Projeto:&amp;nbsp;&lt;/font&gt;&lt;font style=&quot;font-size: 25px&quot;&gt;purchase-api&lt;/font&gt;&lt;/h1&gt;&lt;p&gt;Tribe: Purchase&lt;br&gt;Squad: Financial servoces&lt;br&gt;TechLead: Philippe Gioseffi (pgioseffi@gmail.com)&lt;br&gt;&lt;br&gt;Ecosystem to provide financial services.&lt;/p&gt;" style="text;html=1;strokeColor=#CCCCCC;fillColor=none;spacing=5;spacingTop=-20;whiteSpace=wrap;overflow=hidden;rounded=0;fontSize=12;align=left;dashed=1;&#xa;cvc-icon-id=31;&#xa;cvc-lib-version=1.0.0;&#xa;cvc-archtecture-layer=&quot;patterns&quot;;&#xa;cvc-landscape-layer=&quot;draw-io-template&quot;;&#xa;cvc-template-type=&quot;flow-draw&quot;;&#xa;cvc-template-name=&quot;template-exemplo-1&quot;" parent="1" vertex="1">
          <mxGeometry x="-800" y="-2320" width="720" height="180" as="geometry" />
        </mxCell>
        <mxCell id="yeOD9b_5iuS_1soYfSaR-4" value="" style="group" parent="1" vertex="1" connectable="0">
          <mxGeometry x="-800" y="-1961.68" width="320" height="72.18" as="geometry" />
        </mxCell>
        <mxCell id="9p9Fck6Mg8pQs2x9gp-Q-20" value="" style="endArrow=classic;html=1;rounded=0;exitX=0.997;exitY=0.588;exitDx=0;exitDy=0;exitPerimeter=0;" parent="yeOD9b_5iuS_1soYfSaR-4" edge="1">
          <mxGeometry width="50" height="50" relative="1" as="geometry">
            <mxPoint x="144.04776119402982" y="41.19400000000025" as="sourcePoint" />
            <mxPoint x="320" y="41.68000000000013" as="targetPoint" />
          </mxGeometry>
        </mxCell>
        <mxCell id="9p9Fck6Mg8pQs2x9gp-Q-47" value="User" style="rounded=1;whiteSpace=wrap;html=1;" parent="yeOD9b_5iuS_1soYfSaR-4" vertex="1">
          <mxGeometry y="6.680000000000265" width="143.28358208955223" height="65.49999999999974" as="geometry" />
        </mxCell>
        <mxCell id="yeOD9b_5iuS_1soYfSaR-7" value="" style="group" parent="1" vertex="1" connectable="0">
          <mxGeometry x="-620" y="-1981.5" width="332.36" height="100.50000000000023" as="geometry" />
        </mxCell>
        <mxCell id="9p9Fck6Mg8pQs2x9gp-Q-28" value="wex-inc-purchase-api" style="rounded=1;shape=hexagon;perimeter=hexagonPerimeter2;whiteSpace=wrap;html=1;fixedSize=1;strokeColor=#1F1A10;fillColor=#CAFF85;verticalAlign=middle;labelBackgroundColor=none;&#xa;cvcIconId=10;&#xa;cvcArchtectureLayer=&quot;backend-plataform&quot;;&#xa;cvcLandscapeLayer=&quot;api&quot;;&#xa;cvcTechnology=&quot;java&quot;;&#xa;cvcTechnologyFramework=&quot;springBoot&quot;;align=center;" parent="yeOD9b_5iuS_1soYfSaR-7" vertex="1">
          <mxGeometry x="145.36" y="20.5" width="187" height="80" as="geometry" />
        </mxCell>
        <mxCell id="9p9Fck6Mg8pQs2x9gp-Q-29" value="&lt;b&gt;&lt;font color=&quot;#ffffff&quot;&gt;NEW&lt;/font&gt;&lt;/b&gt;" style="rounded=1;whiteSpace=wrap;html=1;fillColor=#1A1A1A;" parent="yeOD9b_5iuS_1soYfSaR-7" vertex="1">
          <mxGeometry x="210.52000000000004" y="9.199999999999818" width="55" height="20" as="geometry" />
        </mxCell>
        <mxCell id="9p9Fck6Mg8pQs2x9gp-Q-30" value="" style="shape=image;verticalLabelPosition=bottom;verticalAlign=top;imageAspect=0;aspect=fixed;image=data:image/png,iVBORw0KGgoAAAANSUhEUgAAASwAAAEsCAYAAAB5fY51AAAAGXRFWHRTb2Z0d2FyZQBBZG9iZSBJbWFnZVJlYWR5ccllPAAAFqtJREFUeNrsnfFRG8kShweV/z8yODmCwxFYBPDKOIKDAK6ACIAIgHoBICIw1AWAHIF1EXgvA14EfjvQsrEMaLWanp3p/r4qFXdVnHzunflNd89vZ7a+ffsWAABqYEQIAADBAgBAsAAAwQIAQLAAABAsAECwAAAQLAAABAsAECwAAAQLAADBAgAECwAAwQIAQLAAAMECAECwAAAQLABAsAAAECwAAAQLAOrnzapf2NraIkob8tff7yftj532s91+/pCfUD/37ecf+Tn/738+zwjJZqy6xWtr5S8gWH0Eatz+2Gs/H9rPhIi4IorWbfu5aQWsIRwIVqkitS0idSjZFMC8/VyKeN0TDgSrFKE6EqGi1IOXSscoXBcIF4I1pFidIlSwrnC1onVKKBCsnEI1aX9ctZ8x0YAeNO3ngCY9gpWj/DuREhBgUy7azxllIoKlIVY7klXRUIeUzCXbmhOK1YKFcbSbWMXdvzvEChSIY+pOxhisAMFaLVb77Y9PgcY66BHH1icZa4BgbSRWV0QCMnGFaCFYiBUgWkag6f68WE3CY88KYCjeeWzEs0u4vljFfsLXQM8KhiVaHd56szywS7g+NNihBOIYpCWBYL2aXcWt5QmRgELYw+6AYL3GOSEAxiSCVUN2dRp4NxDKYyxjEwJN94VYRaH6EuhdQZnExvs7DwcC0nTvxgliBQWzeOmeDMt7hoXnCipi1/qRNGRY3bIrAMZqBbgWLHkFYsI8gEqYeH9tx21JKI722GgfMw+gIprw2IA36YCnJHyZI8QKKmQcHJ946zLDwsYAlWPW5kCG9TzYGKBm3Noc3GVY2BjAEOZsDmRYz2dXAIzlCnElWNgYwBjubA5uSkJsDGCUJhiyOVAS/gAbA1hkHBzZHFxkWNgYwDhmbA5kWI9gYwDLuLE5mM+wsDGAI6q3OZBhYWMAP5gf66YFCxsDOMO8zcFsSYiNAZzShIptDp5LQmwM4JFxMGxzMJlhYWMA51Rrc/CaYWFjAM+YtTmYy7CwMQB8pzqbg8cMCxsDgNG5YCrDki3dK8Zpdm7az237mT3tm7TPY6f9ET9/BuwlQ3HQPpOplQzLjGBhYxiEmUyIpmOpfoJwZSc+m2psDp5KQmwMeTluJ8Fu152o2EuJv9/+4xmhy8o4GLI5mMiwsDHUVWZQumenGpuDlwwLG0PezGq6yRfIf39BKLNhxuZQfYaFjSEri7Iu1bP7ShmfleJtDh4yLGwM+Tgr/PvA+FypOsOiF5KVebs6v1N4hmRZeSna5mA2wxIbA9lVPq6VvveG0ObNsmTuVEnNJSE2hswZltL3fia0WRmHim0OVQqW2BgOGXsmBOue0GbnUOYQgpUrrQ3YGLJi5d47eKDadkp1giU2hn3GHMBG7MtcQrAyZFcA4HAuVSVYXCoBkJTqLq2oRrCwMTzQhMcTEmbyz7AeceMg2iiiYXUqcXSfZdVkc3hTUWC92hgamWA3y41v2enZC487pmPm3rPEmF1GgXru5V+ZrHuyGHqM4Vjm1mkN/7NVON0dn8YQXzS+6BijU80MtP3/2FJ6trHE13oXNGZQB11PKdCOYeGiXsRpDlac7t5sDI0MoM4nGrS/Gyfbu4CvacF0nfO6nsRw12EMq2m3FC9YDm0MMxGrtY2a8t98RKseTpU46JlJxvi/DXpG2VKpwuZQQ4blKUVfZAW9V3iZcJ5PQYixO9jkCyT+MdOaOotd8XOtaMFyZmM46JsVPMOF49LwMkUvJoqWPA9PBw0Wb3MoVrCc2RiSHvkhGYK37OB7lpryy9pYHm+asdWWZZVscyg5w/JgY3goPZTOJ7p1KFZzjZ0ueT5eRGscCj7NoUjBcnIaw0KsZhpfXtuNv4lotL7YmWgVe5pDqRmWdRvDQqy87URp84/mlzsSrWLbMcUJlhMbA2Klw2/af4Aj0SrS5lBihmW90X6AWKmxk+MPcSRaxc3FogTLgY0h2wUANZ51VItgPREt63634mwOxQiWAxvDRebbSj44FKztdhztZRSt02DfPlKUzaGkDMuyjeFG/Dw5xX8/+CTr7rKYSy2X+ONQkM2hCMEybmOIgzl3v8PzmfeTnFmWYP2F6WJsDqVkWFYn2MN7bTkvcJCew1HwzVUbh5z9rMW7h2ZL7VBIu2ZwwTJuY8i6I8hN2D9NsLvMohWf87HhmBZhcyghw7LaaI9N9my3Gsvhc4jVz6L1pY1LtmxTzi+zfJP14HN1UMEybGNoQqYt79hgbz93gfPuX+K8jU9OIT8IdvtZg9scBhMs4zaGjzn6VlLy3AVuEupSznzJsT0vz92yqXRQm8OQGZZVG8NZjr7VE7HaCdCFh3jl6GtJK8BqaTgOA27qDCJYhm0MjZgJc4mVV+tC8aJlvDQczOYwVIZl1cagXgogVhuTZQdRSsNjwzEcpJ2TXbAM2xhutM+gQqyqE61psHtZ6yA2hyEyLIuNdvXVFLFSEa1PGRrIlr1Z2edyVsEybGO41LyEErFSYyyZllpcZQNmajR+2W0O2QTLsI0hZlcXynG7QqzU2An6htuzYLcBn9XmkDPDsmxj0ByMVwHrgjZ77aQ7V8yyYvZ9aThLzWZzyCJYxm0MmtnVaZxM6EmeBVX5lAfLd0VmsznkyrCs2hjUXr+RHRhet8nLldbEkyzcapaVrd2jLliGbQxxAN4oxWzRt4L8E08z7pZvkc5ic8iRYVnNEi4Ve1dXwf4lsqUy0TrhwcGN3OpzXVWwjF8qcaEUsxgv+lYDTzzFnozliyvUbQ5qgmX8NIapRnZFKVhUaaiyayg7hjPjYq/Wr9bMsCxfKnFJzMyzp9iTuTYct3FQtDmoCJb1SyU0jo8xHrNaUcl25R1DLq0oKMOyfGvLNTFzw1ixJzM1XlKrtIOSC5bxSyVUBpqsRvvoQ5Fo9WGvjcdNxeYwqugBl8CNkpUBg6izLEvaCg1iP6BgGbcxRG7JrsiyUi6AxuOW3OYwSjjxLNsYNAcYYlVHlqXhjbt2ELukNoeUGZb1Lfm5UjnIzmAdJH9OTsrCcUhoc0giWE625JOvhpIuszNYT3mjsSDPPIh9qtilyrA8bMlrDKwP6EBVaJTvtw7ilqxdtLFgObAxRO5Tm0Wlruedwbr4kwyrv9insDmkyLDOHQRbY1AhVvUxTn3TjvRF507it7FWbCRY0oPxcHzvZ8pBIMvamJ1NbQ69BUtKmnMngaYcBM3M+LOj+J1vYnPYJMOKW5UudrgULkidMO+rLgvHJS+IhbMdNrA59BIseWBeXifRGEzvmfdVk3TBkTOy7h3Fr/cBiX0zrHNHwZ2XPuAhO+8rGWdFl4ZZBMvhEb7/Knwn9wySYXkXrF4HJPbJsM6dBTZ1w53sqn7GCscA/89hHNfWktGak23fYXaQurdAdmWD1M9x5jGG69oc1s2w3J3bpLBD+DtzHcHKsDDWwlqa0lmwRAnHjFMyLEi/8GjcE1BRed05y1onw/J4DIpGms7pDCw80FNbOgmWvD/FA2Kggy5es6ydru9ods2weI0E4GcmCt957zienTSmq2B5fVE36Tteqd/0BzBEJ40ZdZhk25QxyaB/BfByWbhyfnTJsBArgDwZ89x5SFfGs4tgTRiaAFky5v85j+dKrekiWBgdASAHK7Wmi2CNiSMAZGCl1oyIEXSBHU4oAXpY0BUtwap5fKX2Tf3mfIytHAtkWNAVrVNS/6g1IArv/5HFIlimV+Sc7KU+A0qOyeUtCkCwSswqKn8jf6PLA17ghCEGCBZocZiq+W7gxvCZ0qIACFZR1J5lXW1aGsp//4mh8Av0sBII1sxxfCYK33lvYFLd9RUtydDuDGQT3l+jGSRrJcPKj4VbfqPofF33Qo329/dErCxkEklvU8Lnli7DajwHSGEgWYnntmRadyJErwpV/D0pA630aeYK8fTOypi+yb2SVDoxKSVeL5snrSDdy99tkUH+JpnUjtHJiAcrPStf/qaH1W1CJsPwZQPbEqsT+RzJv1sUq6Z9jql7kRwykKiH5b25+PsQDwbqnlhkWDpZ60rBkpXEs2hpDKTPjM2q+VzJOKtKrLpkrV13CW8RLDIs0Hl+8oqS96Z7J43pKlg3niO57vZ9h6w1Dvh75n2VxP5VQ3aVnE4aM+o4weaUhWRZoLZ4v3ce03nXzah1jKOXjgOqMaBumftVcq3wnRPnMe2sLZ0Fq1XAafBrItUYUDeUhVWWg0krDa7Re4jpNLlgCWdOg7qd2vEuOyI3aID7ctB7drWWpozWnGRRCb32sjQG1jUaYLN0WQPP/av5OtlVnwwrcuw0uB9Sf6HsFjboQBXMFHYHI55PXF1bS0Y9J5nHUmaS+ohg52W2++xK2gxjr+W1aImuYD1RRo8NY43VkOZ7+cTGMP2rdNz3rdR6CZakxh5tDhpl4X3wbRmpAa0s+E+v2Wrf8nqTA/wugr/+y55SWXhBllV0djVVKgc92hkaGe+96C1Ykhl47L8kLwvJssiuPMVzk6N5RhtOtLjyzJwF/FDpe8myymOukV1pLXwVMNs0ninOdPeWZe1onL8tq84xGlEUKs9DjpQek60OIFiyNTl1FniVLMtpxloqvbbdB87SS2aaIp6pbs05c1bOaDXf1VZ1WIs4lg+UsquYWU0cxjNJJZZEsBzaHDSubV/Ech4wkw5euiic2b7gxGE8L1O9JZDyXkJvNge1tL59uKeBs/SHLAUvNL5YsvJ9Z/FswgY2BjXBcmhziCc4aA6+g8CuoZlSUDhyGNOk2WrSm58dNo3V0nspDeln5eWjViko2ZW3ZvsstS1E46p6T1nWWDPLkoc9DZCDY8VdwUV25e2iieRasPXt27fXf2Frq89qcuWoVo8r8lvFJm2M55fARQWaxC33A8XnN25/fHEmWL1iukqPRkr/s55sDmo7hk/YDTThtchRep84Eyu1fraKYDm0ORzKKqpVGsYB8DHQhNcQq13l7Hgn+NsZvFQ67FAtw4p4sjnE1fNc8w+QAbCLaNUjVsK5s7g2IaGNIZtgObQ57KW+cPWZmM4RrXrESjZkJs5iq2m61Wm6Lz20O0cPLa4u7zJMhFhm3AWuNy9ZrOKz+ersGUUbw+4mXzBU0/0nxXX0wMYhw6sXTzItGvFlloGRq4CNoZ6S8MnkmgVfXqIj7dIQ0erFTS6xkuNjvJ13NVX2seUpCeUBxszDkw8lS2n4JL6efG99uGifxXGmZ+GxFLyX8d5s+kUllIQebQ5RoLPtDolB7yDAcxPpYy6xEj45LAXVbAyDCNZilQu+TnPYV345elm0Ytn9jhLxO3NZ9bPdodk+79Pgb1ewCYo2hkFKwicPNE7gK2cr/K70m3JNmri6x8a/x5MBFpzJET0hY9yjUN05jPVByhecV+pRTsGSB+vJ5rBYgbL1s5YmUCxLPb2DOAuPLzHPM8c6tgC8vSv4EO9NbQzrCtabIVY/Z4IVB3Psa+zm/ENlx+adlCmHxifTvQjVNPcfLBmtx77VYi5nZZT7D3R6acVEdvLCAPGOgvU2Z58hs1DFSfN2CLESroLPkzSy2BgGLwmdp9DHWsfvrhH32N/aNyBUcdf5InepvRRPr3aSZDaGdUvCQQRLHvZp8Hkg/8GA2cDTMuaowlKxEaGaDilUzsfvQymotalRsmBtS5Y1RrQGnXgxQ/gQynZmR2vCdU6LQoeYXQWfNEFxE6lYweLBlyNaTxaQvYLEK4rTbXi8xea+oDh5HrPq47ZowZIB4M3mUKxoLYlXfCbv5WeOpvIsPJo9P5eSSSFWvz6j1DaGGgUrTog7x4OgSNF64TlF4fpdfm73FLIoSjFj+izlRTPEbhNi1Ytd7WdVvGDJYPD+8m4VovXK81sI2It9j1zvmjE+1VC9qKM2wRoHnzaHp1xkfkkXEKuuqNkYqhQsGRinwe828fdVLDx6tTgCeXih2pZWBderZXw3s4jjZbpmGMHXaQ7PEVfyO80beKBzictdkFLOh4LekihGsBxeWvESD5Mlx6ml8KxY7UtmxaLxI7sqJuMvpiR8MmA82xwGS8URqveLq9r2icZ31G0MNZeE3ycp4+Q7J/GaekrELCXgHWJV/lwsTrCcnubQpUQ8IhQqYhUzWPpVvzIt0R9XXEkog2gcsDk8m6KHR89WQyiSZFVej4ZZRTYbg4WS0OOlFV2ZSLZ1Sih6C9V2+zknq3qVy1IXxVHBQcPm8DwPZ7a3k+6r3H8H3cVqPzxewUV5/TJNKPiwxyJLwqUBdsUYWlkmntXwPt6A4yhmpt7Ot+/LoK+JVeN0f2WwYXNAuDYRqhPGT/cxlNvGsK5gvakgiGcMuE7EGMWz490Ll5TKh4ybXnOtaIrPsGQA8gLq+sRjXC5rPgVizTGyLWMkCtWYx782WU5jMF8SymCMAxCbQz/iFnUUrevc9/VlGhs7IlJ7jI+Nxsi7EnYGTQiWDMzTwGkOKbKu6/B47HBT619CROpPESmyqQSlYCmvgFkSLM+XVmiJ1+LM9OIzL2mgf0CkktOEAW4mNy9YMmhjjwKbg05JMAuPxxbPShCwJ0cyL86Vp9zToajTbk0JlgxkbA55mEkW9q/8nGuswtKfHIs4/SH/zPPN9IyHtjGsK1hvKgwyNoc8TJbj3IrLopS8l1Li36US8zlBW76s4ncRpb6XWEDauVQV1WVYMnGwOQBsRhE2hnUzrFGlwT57YTUHgNVUe7pvlYLFaQ4AG3FZq61lVHHQOc0BYH2aUPBpDGYFi0srAHpxVvM1clU23Z+CzQGgM8XZGJax2nT/acVgHAL4mCvVCxaXVgB0YmrhyKGRkYeBzQHgZcz0e00IFjYHgFe5tHLT0sjQQ8HmAPArTajYxmBWsLA5ADxL1TaGZaq3NSyDzQHgO8XbGJbxYGv4ZUVhnALYnAvmBAubA8ADU4s3J42MPixsDuAZs/1ck4KFzQGcY8bG4CXDimBzAI80wZCNwY1gYXMAp5iyMSxjztawDDYHcER1NoZlPNoafllxGMfgJbuy/hc0L1jYHMAJJm0MHjOsxcqDzQGs4qZf60KwsDmAcczaGLxmWBFsDmCRJhi2MbgVLGwOYBTTNoZlzNsalsHmAIao3sawDLaGZ1YkxjkwlikJaykNZwGbA9SPCxsDGdaPlQmbA9SK236sS8HC5gCV48bGgGD9AJsD1EgTHNkYEKwfWRY2B6gRVzaGZdzZGpbB5gAVYc7GsAy2hg4rFiEAxiolYS2l4Sxgc4DycWljQLBeXrmwOUCp0G9FsH7KspqAzQHKxa2NAcF6GWwOUCJNcGxjQLBezrJi2n1MJKAwjj3bGJZxb2tYBpsDFMRNK1YfPf2FsTWsTxwgrGgwNHEMHhAGBKtLafiRSMDA7FIKIlhdRWvG6gYDctCOwTlhQLDWEa0pogUDidWUMCBYiBYgVgiWC9GiEQ+aPPRNESsEK5Vo3bQ/4lvy9BUgNXFM7coYAwQrmWjNRbRwHUMqLkSsWAg7gnG0B3/9/X7S/rhqP2OiAT1owmO/akYofmalHiFYGwnXafvjsP1sEw3oQOxVxReZTwkFgjWUaEWxOkK4YJVQxRIQMyiCVZJw7Ylw7RARCI8N9ShUNwgVglWyeI1FvD4EXqT2xqz93IpINYQDwapRwCaSdcUs7A9KR1Ol3j/yc04TvQDBAgAoBXxYAIBgAQAgWACAYAEAIFgAAAgWACBYAAAIFgAAggUACBYAAIIFAIBgAQCCBQCAYAEAIFgAgGABACBYAAAIFgAgWAAAA/B/AQYADzNdSIm6e6IAAAAASUVORK5CYII=;strokeColor=#1F1A10;fillColor=#CCFF99;labelBackgroundColor=none;" parent="yeOD9b_5iuS_1soYfSaR-7" vertex="1">
          <mxGeometry x="294.3636529680365" width="18.315925063550694" height="18.315925063550694" as="geometry" />
        </mxCell>
        <mxCell id="9p9Fck6Mg8pQs2x9gp-Q-31" value="" style="shape=image;verticalLabelPosition=bottom;labelBackgroundColor=#ffffff;verticalAlign=top;aspect=fixed;imageAspect=0;image=data:image/png,iVBORw0KGgoAAAANSUhEUgAAAgAAAAIACAYAAAD0eNT6AABaw0lEQVR42u29B3gc13mvD8lWsS13O7Zzndg3dpJ7neQ65cnNdfy/kZ3rxEqitiiSKFEibXVLtiRLslUsze4CbCIpkRRFEmwzswBYwN577733AnYSbCDABoIAzv98I1GiRALYOjsz+/6e531IFYKzZ86e75zvfCUvDyHkbSl1Q/vusc/lF5d/J2SU/X0oEvu3grDVLj9iPVsQscMFUfvd/LA1XP9+gmaa/ue5msWhiLkqFLU36N9vC4XNvaGwfUhzPBQ1a/W/v1gQNpv1r03ye+ffyX9z/h9zr/Nn3v+zK+VnOT9Tfrb+O/S/H+b8nVHLkGcojMYecJ4pav9dkWH/6Z1G6Wd5aQghhFArKjIqby40Yt/PL7Z/VhC2H8+P2p20ca8oiFhzxACLQdb/vl4bV+UnnA1G1DyoP8t6+Sz6c5XrX0vyw7FHCyLm/8s3hvzZE6WlNzEDEEIIBdPAV1Z+Sk7uBcXmT/KjsY4FUSuSH7btUNRa+L6BNJv9ZtzTuEnQ3gdzv/YqLNC/Wo43I2x3yC+2/kU8CYZh3MgMQggh5Hm1Myq+pl3iP9Wu8edCYWuIuM+1O/1Crhr4lDcIYfOc3hgs1xumQaFi+9eFEfv2QmPQV5hpCCGEsqI7eve+JRSN/VAbpoe1W/stfZKfrk/yRzDabm0M7EP6SmGq9qZ0KwybDxVGh/6NXKUwMxFCCKVPOgBP7ugd13TUGqiN/SbNZQyx5zYFDRIzkR+xB8jGTGIM5N0xgRFCCMUlJygvYv9In+xf0ozTxr4aA+vbGIOj+tfR2lPwQmGJ9b8JOkQIIfSh5E5ZG4k7tZHo4gTm+TDiHuKOKbiQHzXnS6aF5j8f7FLxZb4BCCGUI5JToESZi8HXRmAdhjGH0RkYeg6sdtITI+aPbzfmfZpvCEIIBUi6eM63C6PWYzpCf4wUvMH4QQvU6FiCkYVh6xehkrJv8c1BCCGfSe7xJR3vgwj9TRg2SIb3PUTaU6Q9RsQPIISQR/XBXf4v9R3veH3KP4sBg/QGFJq14kHSnqRHirqWfpFvHEIIZfOkrxdiWZD1SX+KpIFhqMClzcAl6YkgNQju7jb483wTEULIBcmCq12zD77flEYvxBgkyHLPA/EM6NoD90vDJr6hCCGURsnCqu9i73s/iE+azGB4wJOclyBC/Wt+Yc+Rn+GbixBCybj3dRMd3c72vz5YUM9jXMBn1wRnpaujrkz4c5oaIYRQHJLOefqkH3Xa4GJIIBD1Bqx9+tc3JB2VbzhCCF0lpzhPxCz4oKlOM0YDgtr+WM/zSbri5N0UHUII5bSkyY52kXal3j7kYBXCI1KSuLA49t9ZCRBCOaEOhnmrdom204vgXAwBgCZizpIgV1oaI4QCqbs6DfuGXuyK9cnnJIs+wHVbGh/XLaeNwk5Dvs6KgRAKgJu/7Af6dDOYLnsAidQWsAfca9h/wQqCEPKXlLrBqcUftSezoAOk0q3QHF9UbP9/8p1iYUEIeVZONL9U6Ytaa1jAAdLYmChiryiMxIrIHkAIeUoPGWVf0Ib/Re3mP8BiDZBRqnTQ4G90wOBtrDwIoazpwS4VX9aNeEqkUxoLM4Cr1EjAoGy+WYkQQu6e+CP2mzpq+QwLMUBWAwZP6e/iK3gEEEIZlTTlkcVGFh0WXwCPpRBG7N/ShAghlFbJoiKLiywyLLYAHq8wGLGevaN371tYuRBCSUsWkYLi2DOyqLC4AvhpI2Af0DECT0hmDisZQihuyaKhF5DHdXDffhZTAD9fDZh786OxjtJem5UNIdSqpH+5PvFvZfEECFAdgbC9MVQc+1dWOITQNSqMlv0llfsAAs/YfGPIn7HiIYTy7jHML+lT/9u6Je9lFkeAXEgdNC/pap1d7u42+POsgAjloOROsLDYelLXGj/BogiQkzUEjhaGrV8YhnEjKyJCOXPPb/1Uf/k3sAgCgC7jvdppOIQQCrDh13d/cgfIogcA12KOKDLsP2WlRChActL6ItZrOrWvnkUOAFpJG7yg14qX6DqIUAAUigz9R0kBYnEDgPix1hQZ5t+ygiLkQ31Qt/9tfdffxGIGAEl4AxolW4D+Agj56a5fivlI33AWMQBIPW1wlwQOs7Ii5GHd29n+qt6xx1i0ACAD1QQHPdil4sustAh5SUrdUBC22tGtDwAyXTsgP2IWyJrDwotQlhUyyr6to3ansDgBgGtErHGhkrJvsQIjlCUVRmJF+WHzNAsSALjfctg8WRCx72ElRshFSQ1vXb1rKIsQAGQ9NiBiD7jTKP0sKzNCGVZBJPZPuqDPbhYeAPBOyqC1XV9H/j0rNEIZkDTv0ak4f3g/N5cFBwC8tgmwG7Rn8mWaCyGURumWvd/VkbeLWGQAwAcBgnMkOJmVG6EUpXfUD+pCHLUsLADgn5oB5mknXRAhlITLv2vpF7XxL2cxAQAfxwYMKTIqb2NFRyhOhYzYX+tAv50sIADg/+JB1pbCaNlfsrIj1IZ0Kd/7dKDfORYOAAhOzQC7Lj8au5cVHqHrSPpvF0TNniwWABDY2ICo3UkymljxEfrI5f9HoYg9jwUCAAJ/JRCxZ0jjMlZ+hPEvMf+Pzp89xMIAALlzJWDto3AQyl1JB7+I/ZQUz2BBAIAcjAuo13EBHTEGKKdU2HPkZ6jlDwAgcQFW/zt6974Fy4CCb/xLrP+mjf9qvvgAAFeqB9rL7uo07BtYCBTc+/5o7Ifc9wMAXJeqQqPsB1gKFDjplpk/1yV9z/IlBwBosaHQGd307KdYDBQY6WCXx+niBwAQ1yagoTBqPYLlQL6WtMXUlf268KUGAEg4ONCQbCksCfKdOhjmrbqy3wi+yAAASW4CwratmwndjEVBvlE7o+JrevIu5gsMAJAycx/sUvFlLAvyvAqN2Pfp5AeQGPeVxBgHaKVokLn1HsP8LhYGeTfYLxL7Jz1RT/KFBUiMTsNmqxdLJzIW0ApmNeWDkTdP/hH7dtL8AJLj6T5jVHXNWdWh+wjGA1rOEIiatQXFsX/G4iDPKFRs3hGK2hf5ggIkR6HmzLmLasX2A87vGRNoOU3QPBcqjv0rlgdl3/hHrBANfQBSZ9WOg0rUZ/wixgPaiAmw60MR87+wQCh7bv+w+RAFfgDSw7C5a50NQN2FetWxB1cB0GZMwOXCSKwIS4TcD/jT1f10wF8zX0KA9NB1xFx1RdNXbWdMII6YALtJr8UdsEjIRbe//TxfPoD08nz/CR9uAJqbm9Wv3xvHuEB8MSQR+1dYJpRZ6bKUupXv63zhANJPu87l6mot3LSXcYEESgfbL2OkUMaMP3X9ATLLqbrzH/MCSHog4wLxY0XoH4Aw/gA+ZNuB6o95ASYt38q4QGJE7DBGC6VNuP0B3GHJlqqPbQDOXbykHtBXA4wNcB2ACPgDCDCz1+5Un1TP0QsYGyAwELkrJ9WPLxKAa0xavuWaDcCyrfsYG0i2YBApgihxSZEf8vwB3GXkgvXXbADqGy47GQKMDyRTJ4BiQShBt7+U96XCH4Db2DNXqeuppGI24wNJVwykbDCKz/hLYx9q+wN4agMwdvEmxgdSuQqop4EQat3t77T0pasfQLa40g/gk9p+8DjjA6ldB+gugrQSRtcP+IvE/kn3mj7LFwUge4xauOG6GwCJAygsjjFGkOImwD4TMsr+HouHPjr5G7Hv64C/k3xBALLLhKWbVUt6ti+9ASAd1wHWsXsM87tYPpTXzqj4mj757+KLAZB9Zqze0eIGoPPwOYwRpGkTYG7Vm4AvYQFzWB0M81Y9GRbzhQDwBqt3HmxxAzBwynLGCNLJ3CKj8mYsYQ7KMIwb88PWcL4EAN5hf3VNixsAMgEg/XUCTIvmQTkZ9Gd35gsA4C0u1De0uAGYuWYHYwRpJz9iv4lFzCXjT4lfAM/xyFvDVWtatGkv4wQZoTBqPYJlzAHp3d7PqfIH4D3esKa3ugFYteMg4wSZSg9syI9YP8VCBlihaOyH+vRfx4QH8GAVwFmrW90ArNx+gHGCjNYIKDTKfoClDGKuf4n13/QLPsREB/AmS7ZUtboBWLqFroCQ8RoB+4oM85tYzCAZ/54jP5MftVczwQG8S3XN2VY3AAs37mGcIPNE7GV39O59C5YzCNIpHtr4D2ViA3iXp/uMUW1p8oqtjBW4tQnoh/EMwum/2HqSCQ3gbQZPW9HmBqBizlrGCly8DrA7YEH9HPRXYv4fWvsCeJ/1ew63uQF4b+ISxgpcLBLkdIb9OyypD3VXp2HfIOgPwPu07zpMXW5sanMDIGmCjBe4TNW9ne2vYlF9pNuNeZ8ORex5TF4A79N73CIVjzr2GMF4gfuegIg9o6iy8lNYVp+oIGL1YOIC+IMt+461afxrz19krCCLQYFWCZbVB8oP2/czYQH8wa/fGxfX6X/j3iOMF2Q7M+AeLKyXT/5R6690md9zTFYAfzBuyaa4NgAjF6xnvCDLQYFm7b2G/RdYWg+qqGvpF3Xaxk4mKoB/gv/OXqiPawMQLpvJmEH2NwFhe3ORUXkbFtdrrv+oXc4EBfAPsTZq/19RU3OzeqhrBWMGnkBfMw/C4nqp2E/YfIiJCeAfHuxSoc6cu8j9P/iVfCyvB3SPYX5X7maYkAD+Yej0lSpeSZVAxgw8ViTolDSYwwJnOd9fv4zFTEgA/9Ch+whVF+fdv+jJXqMZN/DiJmC2YRg3Yomzde8fsf7ARATwF1N0U594tevwCcYMvBsPELVfxBJnpdhP7J90yl8jkxDAPzzXf7wT1BevBk5ZzriBl7MCGooM82+xyC7q7m6DP69T/nYzAQH8Q2FxTG2qOhq38W+43KgeeWs4YwdeZ9udRulnsczupfwNZdIB+As5zSeihRv3MG7glyqB/bDMbqT8RWJFTDgAf/Grd8eq+obLCW0AXjenMXbgn3iASOwuLHQGFTLKvp0fNk8z2QD85fqPp+HP1dpx8LgqZOzAVwGB5gkdD/BNLHUmpNQNuiPTFCYagL8YPm+dSlRdR85l7MCPjMZYZyLqP2y1Y3IB+AsjNkM1JxD1Lzp04ozjNWD8wJeZARErhMVOo9oZFV8T9wqTC8A/PPp2paqJs9zv1eozfhHjB/4lbB7RFWq/hOVOV9R/2LaZWAD+4YFO5WrbgeqEjX/VsdOc/iEAmwC7FMudDtd/sfXvTCgAHwX9aeZv2KOSUUnFbMYQgvE9iNi3Y8FTkPRd1gNZxWQC8A/D5q5Nyvhv1EWCiPyHAHkBdnYwzFux5EnX+rffZiIB+Ie3xyxIyvhLoODLgyYxhhCw1EC7E5Y8mYI/Jdb/1t2WmphEAP5A3PeNTc1JbQAm6wZBjCEED/NyKBr7IRY9AT1RWnqTDvzbyOQB8AevDZ2qLuna/cnoVN151b7rMMYRApoWaK4qqqz8FJY93sC/iPUaEwfAH7xYOlGdu3hJJau3KucxjhBwrBew7PHc+xtD/kwHT9QzYQD8YfzrLtQnbfxXbj9A4B/kAufvKR76J1j4tk7/UXsskwXAB8Z/4CR1NgXjf0YXCfplz5GMJeRIVoBVgYVvNerf+ikTBcD7vJSi8Rd1Hj6HsYRcqw3wIyz99XL+dZCEjvrfwCQB8DbSpvdCfUNKxn/G6h2MJeQiKw3DuBGL/8m0v2LrSSYHgPdT/ZKN9r+iI6dq1YNdKhhPyE0vQNR6BIt/laRxAs1+ALxNz9ELdJ5/U0rGXzYPv9WBg4wn5G4sgHlEqtxi+T8M/DN7MjEAvIs5Y5VqVqmr1zg6/QHoVPcSLL+4/qNlfynVkpgUAN6jSHfmkyp96dCUldsYUwDHC2DX666X/53Tf9SezIQA8B5yT79s6760GH9pDXx/pzLGFeBDL4A9Kteb/fyciQDgPR57u1LtOnwiLcZfSv3Kz2NcAa5JC8zNlsFS718HQ2xlEgB4r8DPydrzaTH+Fy41EPQH0AK6W+C6nOwToO9AHmcCAHiLriPnqvqGy2kx/k26xW+0fBbjCtAqVvucMv539O59i94AHODFA3glN9lWw+etU+lUv0lLGVuANghFzV23G/M+nTun/+LYM7x4AO8E+y3dsi+txn/Moo2BG6cne49W3UfNV4/SvwDSzy9zI+2v58jPSCEEXjhA9nm6zxhVdex0Wo3/7LW7lE5xCkQK5BvWdDV+6Wa1v/q0U764Y/cRzBvIQFqgtU8XB7o5B9L+rBd44QDZJ1I2M+WGPp/Uwk17HcPp1zFp17lcvVU5T83fsPvDNseSwijNj5gzkOG0wKcCbfzbd499Thf9qeZlA2T3vt+etVo1Nzen1fiv2H5A3VdS5kuj32P0fOca5OoASElf7E3lQnArFiBsH+pgmLcG+fT/e140QPZ4qGuFWry5SqVb63YfVg90KvfNOMhGRdoRL9Iei4uXPp710NjUrCZot7+MFXMG3PUCmL8JpPF/yCj7gm73e4qXDJAdnu07Th04XpN2479l/zHfdPd7ZcgUNW3VdlV3vr7Fz/LCgAnMF8hWLMCxO43Szwax6t+bvGCALOX3j5irLtQ3pN34b9x7xPPG/1FdhbBs9mp16MSZFj/HmXMXVZ/xi5kr4IXiQC8HyvjrBeLL+n7jDC8XwP1I9tE6JS8TWr3zoHqgszfd/pKFIC7+VTsOOi79liRxENO1R+CRt4YzX8AjXgDz5N3dBn8+OHf/uvUhLxbAXSRlbf2ewxkx/tIkyIvNfeS0LwWNTpw51+ZnqDp6Sv1+8BTmCnjRC/B6IIx/UdfSL+qqf3W8VAD3eHnQZHU8DiOYVKrfxj06iM5bqX6vDpnqBDc2NjW1+fwS6S9ZEF77DAAfZgToeLlAxALoncyLvFAA9+g7cYlqaGzMiPGftWanZ/L8JZL/nbEL1c5D8XctXLv7kFP8iHkCnk/Xjdi/CkDHP2r+A7iBpOFJtbpMaeT89U4NgWx/Tgk6NGesVCdq4/dwSJCfbBaYJ+AfL4C5y9edAvXp/0FeJEDmefydUWrHoeMZMfzS1a/fpCWeiGmoXLAh4eqFUp2QEr7gy01AxAr50/ordYMu/LOGlwiQWV43p6masxcyYvzlvrxk2Oysfr5f9Bjp1ONPtE3xaT0mkv7IHAEfbwCW+DTv3/opLxAgswyYvCyuwLdkVKPd5hJMmLUTf48RatySxA2/aN763aT2QVBiAX7kw7K/9mReHkBmkBS8TN73Hz5Zm7VgufZdh6lRCzdcU6I3rk2LPvVL/j9zBALEaH+1/DXKfsBLA8jcyXjLvmMZM/5rdx1SD3dz//QsUf2Dp61QtecvJvXc0syHu34IYGGg5nuLre/5qenPYF4cQPr5belEVV1zNmPGX+7as5Hm133UfHX0VF1Sz3zu4iXVi659EOTCQBGrrz8K/xjmN3X6wiVeGkB6Edd2Mvfh8UjqBvQZ774Rfa7feKefQNK9CKqOqid6jWJ+QLCDAcPmhXs721/1w91/MS8MIL0Mmb7SqVufCUm0vHTJc/PzSKtdabmbbACj1Pcvn7PGqfnP/ICc8AJ4vTxwB8O8VRoZ8LIA0oO446es3JYxl//uIyedGgJufqa3KuepU3Xnk35muQJxe8MCkP1YAOuYFNfz7uk/bLXjRQGkh3a6097K7QcyZvylQE47F7v5/bLnSCdQLxVJvf/23YYxPyBXyfey+38uLwggdTroaPbtBzNT2U8uEhz3uYufp5cuw1t3vj7pZ77c2KQGTl3O3IDcJmJP82jqX+z7vCCA1Hmy12h18MSZjBh/ya3vMsK9PHkpxiOtg1ORtPalbS/A+ymB+cXl3/Fg5T+7Ky8IIDWe7TsuoSY3iejY6Tr1fP8Jrn2WP1jTUv4s6/ccJrcf4GNYEQ92/bOO8WIAkkeMc6Zq+u/RwX5yB+9W4OLIBeudJkKpaMKyLUT5A1yDedBTXQIlMIGXApA8Lw+apOou1GfE+K/fc8Qpr+vG55DT+iadm5+K5L6/74TFzAuAluoCRMz/8s4GQAcm8FIAkuPFgZOcanaZ0CId6S99A9z4HC8MSL1K4RndgOi1oVOZFwCt1gQwx3vj7l8HJEhgAi8FIBmjOSFjJ/9Jy7e65kKX3P5kmvdcrSOnatWv3h3LvABoywMQNhtDJWXf8kLd/wgvBCBxfqPL4MqJNxMas3ija2l+ZbNXq1RrFO46fEL9osdI5gVA3CmB1mvZrfuvAxEkIIGXAZAYUr/+ZO153xv/cUs2p/y8a3T3wQe7VDAvABLzAuw1DOPGrG0AJBCBFwGQeG78/uoaXxt/uVqYtWZnys+7fNt+pw0w8wIgiViAYvtn2dsAhO2RvASA+HmgU7navO9oRoz/uCWbXDH+95XE1JItVSk/r5T1lZ/FvABI0gsQNa2sGP/23WOf0w9wnpcAEOepWTNn3a6MGP/Za3e6c/LXzN+wJy3Gv4gcf4AUrwHsM3f07n1LNoL/7uMFAMTPIF3LPhOSO3S3TtKTV2xN+XnXOs+L2x8gPV4A6+4slP61xjD4APHxhjXd6WGfiXa+D3V1J4Bu+Lx1KT/vtgPVBPwBpLUmgF3uqvG/u9vgz4ei9kUGH6BtHtUleGsykO53XDfJcau8r1TmS1VHdS+CDtT1B0h3HMDZwp4jP+Pe6T9qP8jAA8R3Zy4u+nSrobHRKR/sxmd4SVcqbLjcmNLzXrjUoJ7rP545AZCJTUDECrlZ+ncCgw6QvXv/vhOXuJaymGp5X7n46DpiLvMBIGOYI9wp/tO19Iva5XCJAQdoHWntm+rJ+XqauWaHa96L1TsPpvy8U1ZuYz4AZJbzkpmX8Q1AYdR6hMEGaJuV2w+k3fjvrz6tHuhc7srzD562Ig3PW+Pa8wLk9HVjJFbkgvvfmsJgA7SOEZuRduPf1Nzs2r3/4++Mcu7tU3L96+f93aDJzAcAdxidUeOv03e+rO8aLjPQAC0jBW6qjp5K+wagcsEG1z6DlOj1y1UFAEg2gH2xyKi8LYPFf+xfMtAAmU+Z+6T2HTut7u/kTvEcCdhLVRfqG1RHUv4A3CVstctg+p85nkEGaD1w7tCJM2nfAPzBmuaa9+Loqbq0NCViPgC4XBQobA3PTPS/UXmzFBxgkAFaRu68061lW/e59vzvjF2Y8vNe0pkPHXtw+gfIwjXAqaLKyk9lovTvTxlggNZJR638q9XY1KSeeXesa96LdLQpXrhpL3MBIFubgBLz/2Qi+v8tBhegZaQhz5k0l/yd6mIOfbeRc9PyzCUVs5kPAFnDiqTfAxC2NzKwAC0TLZ+VVuMvaXRP9xnj2vNv3nc05We+eOkynf4AshkHELFXpNX4h4yybzOwAK2Tjm55V2vJlirXnv2xtyudDUfKrX53H2IuAGQ1E8BsLuw05OvprP73GAML0DpisNOpV4ZMce3Zh6Sh6p/btQoAoIV4nrD5UDrz/0czqACtczCN6X8Hjtc4QXluPfu2A9Vpee4+4xcxFwCyHQgYtsvSYvyfKC29Saf/1TKoAC3zQKdyp1RvujRs7lrXnv3RniNVup5cSiAzHwCyvgE4bhjGjakH/xVb/8KAArSOpOqlU79yKfVP6DJiTtqe+9WhU5kPAF7YBESG/mMa3P9WFwYToHWk9W86O/65+ewj5q/zZdwCALSaDfBmGsr/2usYTAD3NgBu5v4LK9LYtrjz8DnMBwAvbACi5tLUov+NQV9hIAHa5tfvpW8D0GP0fFef/fiZc2l79n6TljIfALxwBRC1m1LqDqh/yJ0MJIC7G4DH3xnl2nNL9cJ0aoouhcx8APAIEfP/cf8PkGEeeWt4WgxofcNlV9P/0vXcVyTphMwHAK9cA1hG8hUAo9ZCBhEgPmrS0Aeg6pi7AYBP9hqd9uZF7bsOYz4AeAJrZgrtf+2LDCBAfGzZfyxlA7p8235Xn/m5fuPT3r64+6j5zAcALxC265JqDywtBRlAgPiZuWZHysZz7rpdrj7z7wZNTvsGYKXOKmA+AHiDIsP822TS/15k8ADiZ+j0lb5LAXxhwIS0bwDkGkCqCzInADxAceyZZDIAxjJ4AAm40/un7k4fv3Szq8/csfsIlQmNWriBOQHghUDAsDU8Meuv1A0FUbOawQOIH4neP3a6LiXDOdnlNDp55suNTWnfANRdqFcPdqlgXgBkPw7gQIIFgGLfZ+AAEkcMeCqa43IMgHCi9lxGvAAVLjY0AoCWuad46J/E7/4P2x0YNIDECetueKlo2dZ9rj/zrsMnMrIBOHfxklNngHkBkG3vZOyBBAIArYEMGkDi3FdSpurO1ydtNHceOuH6M89eu1NlSlNcDmoEgOvybgIBgOYmBgwgOcYs2pi0wTyr787dft4+4xdlbAPQ2NTsZBowLwCyGAgYtVfHZfzv6N37Fr0BuMygASSH1PIXw5esOujIfDef9+k+Y1QmJeWBC5kXAFlDivrdbsz7dBzlf2M/ZMAAUmPRpr1JG8xo+UzXn/dk7fmMbgJKpyxjXgBk0wtgmP+j7fv/sP0wgwWQGq8MmZK0sRy5YL2vNizx6EJ9g3qy92jmBkDWsO5r+/4/Yr3FQAGkTrK9ATbuPeL6s74zdqHKtDZk4XMBwIcUxxMAOJ2BAkid3w9OzgvQ0Njoeke9BzqXO2l7mdagqcuZGwDZIGJPiKMGgHmEwQLIrmu9RxY66s1YvSPjG4BLlxvVr98bx9wAcJ+qVo1/O6PiawwSQHoj7OVEn6gW6o2DXzwWiWrPkZNOvQTmB4C7PGSUfaHlAMCI9VMGCSC9jFuyOWEjWd9wWbXvNsz1Zz1wvMaVTcC4JZuYGwBuUxz759YqAD7HIAGkl4e7DVen6hJPs+s/eanrzzpk2gpXNgDNzc1O2WTmB4CrcQBPtVwDIGwNYZAA0k/n4XMSNpJSo9/t53ygU3nGawJckWyKOrpc9AggxzcA/VrJALBXMkgAmWHe+t0JG8nXhk51/TkHTF6m3NLK7QeYGwAukR8xF13X+BdVVn4qFDYvMEgAmUE6450+eyEhA7l8237Xn/O+kpg6errOtU0AVQIB3CEUNWvzlLrh2vv/4vLvMEAAmaXLiMSuAqSjwG/6jXf9OXuNW+TaBkBSA5/LwmcEyEWKDPOb17r/i82fMDgAmWf22l0JGcjFm6tcf8bC4phrGQGi3To1sEj/ncwPgAx/tyP2j66TARDryOAAZJ52uurevmOnEzKQvy2d6PpzvmnPUM3KPdkzVzE/ADJN2Gp3nQBAK8LgALiDVMO7cKkhbuO4eufBrDzn9NXbXdsASO2Dp2gYBJDhTADrtet1AbQZHAD36Dl6gefbBD/UtUIdP3POtU3AXJ0pwdwAyGAmQNQaeG0NgKi1kMEBcJepK7fFbRz3V9c4EfpuP2O0fJZrG4AmXSDoNwQEAmTQA2DOuk4TIPsAgwPgLlJ4Z/vB43EbyCHTV/oicDEVyd/F3ADIWCrgro/XADAqb9ZdAJsZHAD3+WXPkaq65mxcxlHiBh5/Z5TrzyjljN2qEOj0Qeg6jLkBkIkNQNhukLo/H24ACo3Y9xkYgOzxfP8JcQcFLtlSlZVnfGXIFHW5scmVTUC/SUuZFwAZ4p7ioX9yVREg+2cMCkB2KamY7TTJiUdSUCgbzyiG2Q2toEQwQAbjAMr+79X3/48zKADZZ3Cc3fikkY645bPxjDPX7Mj4BuBCfUNWAh4BcoHCqPXIVUWA7E4MCoA3mLJia5zBcjuz8nz3dypLKHAxWWWj+BFATqQCRuw3r/IAWBUMCoBHdue6JO6iTXvjMpIlw2Zn5RkffbvS8UJkUm+PWcB8AMgEYcv8aAMQseYwKADeQU7Z6/ccjusqQLoMZuMZXx0yNaNBgcPnrWMuAGTCAxC1p15VBMjewKAAeAupwrfz0Ik2DeVC7S3I1jO+N3FJxjYAE5ZuZh4AZIaVH20AwvYhBgTAe3TsPkIdPHHG0+7y6asy0y9gxuodzAGAzLDnfeuv1A06C6CeAQHwJk/2Gq1OtFGP/9zFS1kpECQ8oLsbHjx+Ju0bgMk6GJL3D5B+dDXAWsf+t+8e+xwDAuBtnnl3bJtBd+v3HHECCLPxfC8Pmhx3DYN4NWrhBt49QIZ4orT0Jl0EqPw7DAaA95EWwjVnL7RqNIdmqVdAJuoDDJi8jPcOkCGKDPObeSGj7O8ZDAB/8JzulFd7/mKLRrOhsdEpK5yNZ/tFj5FOHf906Q1rOu8cIGNYf5UXisT+jYEA8A8vDJio6i7Ut2g4q46ectIIs/FsE5dtSYvxl+uEbKU3AuREKmCx9S9SBKgdgwHgL14cOMkJ/GtJ45ZsyspzPd1njEpHJMCeIyd5zwCZJT8vP2I9y0AA+I+X9CagJU+AGOE/WNOy8lwbq46mvAEYs2gj7xggk+geQLoKoB1mMAD8ex1w5tz1YwKOna5zigm5/UxD4mxo1JpeGDCB9wuQySuAqPVqnv7NuwwGgL8DA0+3kB0gkfnZyFZIRRLDwHsFyDARq0deftgazmAA+Jtn+45TJ2uvXycgUjbT9ec520qQYlvqO2Ex7xQgw+hiQJZcAUxgMAD8jwTgHb9OxUCpIti+6zBXnyXZdsFS7ChbGQwAOXYFUCkbgGkMBkAweLL3aHX4ZO01hnX66u2uPke87Ywp/gOQrSsAe4LEAMxlMACCw6M9R6qqY6evMa6vm+5lBUgjn0QlTY+KslTKGCAHNwDTZAOwmMEACBZSROeTbnhp2OOWe33qym2JFf7JYtoiQI4yV1cCNFcxEADB48EuFbpB0OGPGdqy2Wtc+btnr92V0AYgG9kKADnO4rxQ1N7AQAAEkwc6latlW/d9aGilVr8bbYNX7zwYt/GXmAXZrPC+AFzMAtCHf7kC2MZgAASX+0piau66j07kC3WAXqb/zv3VNXEZ/4bLjbqV8CTeE4DraYD2hrxQ2NzLYAAEm0LNuCWbPzS8Lw+anLG/S+IMGpua4toAvEvOP0B2NgBha7veANiHGAyA3MCeucoxvOv3HMnY3yHBfPFogu4cyDsByNYGwNwrG4DjDAZA7tBn/GLVpNvtGrEZGfn5oxZuaNP4L9VxCYU5OPYde4xQb9jT1TtjFypLb8ZkEyQ1Gq4wRWdPDJ+3TvWbtER1GjZbPaXrOhQyZyEzHNZBgGYtAwGQW4hxWbnjQEZ+tqQbtqZ1uw/nRLU/Mdwvlk5U5XPWqOXb9jsVGZNR3fl6Z8wq5qx1+j6wIYC0EDZPShbARQYDIPd4dehU9cy7Y9P6M3+nYwta08a9R1S7zuXBNfq6kJH0Xpi2anvSBj+erImR89erR9+uZB5DChsAuy5P7wKaGQyA5ILdZBF+rv949Zo2ptHymarryLmqx6j56u0xC1SP0fM9f2JL97PNXb+7RcO1dtch9UCAjX/n4XPUoRNnlFuSQMv5G/Y4c4zvIySeBWBeymMgAK6P5KZLipoYc3G/SrEaKaxz4HhNi93uqmvOOkVweuk7Xjfy7b3EE71GqYbGxuuOy+LNVYF1+8vnkrlxTYqjHov91afViu0H1Dy9MZL/Z8HGPWqN3gjJKb6xqTktGwGJ5xCPg8QX8L2F+IMA7QZJA2xkMCCnU+S021Z62Iuhl1Q5MfLxum8v1Dc497ulU5al3Z3uN65nBEWTlm8J7L21GP8rRY9On73g1FiQuSB3/1J/obU/K94QyZgQd75sKlPVuYuXVM/RC/hOQ7x1AC5KEOAlBgNyCamTX1Ix24lW31R1VF28dDmhhVYa7YxZvFG9YU3Xizyta4UXBkx0TqIfd1E3q4FTlgf6c8vnE++QfP5UNzkvDpzkeAriraHQkqTo00NdqawIbV4BnBUPwAUGA4LuyheDP1GnXO3TxjtRx+vlxia1dvchZ7F/stdoxvQ6cQTbDlR/bMxqz19Ub9ozGJ8kkNS/ZNspX9HuIyfVL3VXSMYTWrkCOCMegLMMBgSNZ/uOU/as1WqjPuGLAU9UUjN/6ZZ9zrVA+27DGNNWGDp95cfGbofuQshGKXXCuk7DidrkMwmOnKpVT/cZw1hCS1cApyQIsIbBgCDc4/9+8BQ1ZtHGNvPQW6xLr4O2pHGORPHTnCY+fqvvuqWe/5WWvuOXbuZaJI083G14Qo2VPqmjp+rUL3rgCYDrYVbn5UfNEwwE+JXn+09QYxdvSinnWtzX/SYtdRZbxjQx4ySnTNGpuvNOGiTjkn6K9OZWKgQmqx2Hjge69gIkWwfAPKI9AOZBBgP8hKTXxbR7X4LxkpWk8UkZVon+Z0yTM0pSnc7pLqhT2ySwknHJbJzF5BVbk57vs9bsZBzhk+yRDcAOBgL84OKXQD7Jqf5ktHkiknSr9yYu4USUIrPX7nTup6X4DePh3iZgyZaqpOe+fH8YR7jqCmCTrgRorWcgwKs8qiOZJc1KCuykor1HT6kuI+Y4GwnGNTXknn+ChlSz7GS07K9OrmaAXNMQ2wJXyI/YKyQGYCmDAV6825+bhpxoKc4iVfkw/OnxwsiJn9Kz2UX6LTQn6QUrm72GMYT3swAi9ry8gog1h8EAr7g4JXdcSqWmQ3I3TWBfejcAjIM3SDYoUGJfSGsFxwMQtafm5UfMSQwGZNvwSxMdKV6SLg2bu5a2qZAUksYoDZ6kmdM72nvkxTS6x3QTqivpl4lq4NTlvGcQRuflh63hDARki1eHTL2milyqkkApxhbiuU+X8rti5KUs9FJdA0JqSMi1k6TOyabUy16PlnovtJkWqAs18f4hP2zbOgbA6s9ggNs80KlcTU0ht7k1SbAfYwxXri2e1KV1I2Uz1SB98hXXuTR7Ot5C3Ygt+445Ffj84D16VbegTla/yvHGVaCJ2L10GqDVhcEANxGX6q7DJzLWJ13c/4xzbtUkkJK3YW3kB0xe5mQorNTpopLyGa+bfOv+avWGPd13V2fJlgruq1NhmTu5HgNgGbIB+D2DAW4u1hv3HlGZlNT+7zN+MTEAAYoRkU2jlHqWe/my2asd97ec5KXUbSqZIlU6PVTy4/06VxYm2TRIxo+5lfMbgOfyCoutJxkMcAtJI3NLElsg1wHUpvf+dZC4pOUE3nvcIlWhPThioNbqbBC5k5fGTOmW5MQ7m0SfZzYMmbYi6boYzL0cJ2x3EA/AfQwGuIV06HNbdefrnZoCvbRxkTLCvAeXDLuutij373Jy7zpiruOeH7lgvVOWVhrcyOlb2ga7KfEOjdYNo4JSECfZDXWNro/BHM35GIB78gqKrX9nMMAtpHtctiWnv1U7DjqR31Ik6OVBk6hq1wZSOlk2Ty8MmKDesKartyrn6QZKSxx3vFQGnLNulzOmEmEubvkL9Q3Ka9qkW0MHrffDSzqLIRk1NjVzRZbrV2sR+3ZpB/x3DAa4iTljlfKizpy76AQnLt+238lQkGBC6RIo6WCvm9Oc3HDJv5bTo9cXz8IPXOvSpOeJXqMcwycbnT9Y01TJsNmq5+gFjgE3Z6xUI+avUxN1YySp7790yz7nbn3noRPq8MlaVaPHRNok+1nyOcT7EESDJxUzkxWb3tzm3qj9P/PuNgb/MYMBbiMGSIyLXyUnqHMXLzlR2IdOnFF7dBEjiTnYoAMcxb0tm4jFm6vU/A17nNOx3GlPW7VdTdEd3aSr26TlWxyjewX550nL3/9vkqom/6/8mdlrd+mfsVst0sFekqcu0e1yNy6BlPL3yYZln+6KKEZOnkVc6hcvXU66VGwQtL/6tDN+EjD4qN6wBfl79MKA5D1qRVR2zG0PgDHoK3lPlJbexGBANpDTqbjh63R5UoSSLW27dvchVblgg3Mf3rH7iJz6DolnKhlJYCVrUC5jXjYM48Y8UShqn2JAIJv3y+KOltNzUw6fXFHbxl7u8cVTItX7ntGZA7l+jy2BrcnGwbD25DSH866oIGxuZUDAK0WC5N5d7qLxDOSmJFJfWt7KtYd0r5OYBQlAJGjtWiR+IxlJnAfjl7uEwubaDzcA0haQQQHP3VHpO8oXddbA0Okrnc5+cs+NgiOJV5A4Bgk+tGeuclz4cqrnbjp+5PojGUnmBuOX01cA0z/aAETtYQwI+CVuQEq+yqZA8sm367QzL6acoffvmWXTJkGLEpRnaSPfTWdUSCpo+660pE1HVc0Ll5Kb+2+PWcAY5nQRIMv86AoganVjUMC3ngKNuIglxa3vhMVOYKGUSJVUNrnrbCauICOnd4m2X7/niJPpMEYX1ymdssw5xYuBl40aLvvMIvM92QwWeT+MYS5jRT7aABTHnmFAIKjcV6I7wvUa7XRPk9Qw8R6IwRLXsxSvkY1Cdc3ZpE9TfpfU0pdqiZLOKC75FTrVUNIPxy3Z5FRulMYxYtiljoBstCit7A2SbQcsmzbGL9cPTdZjV10BWHczKAC2Y9wkEFEK57w6ZKoTgCYR51JIRlzYI+evd7rNzVi9w4lLkHx/cXFLdLr0kJfytmJIpd2seB+k1oEEM8o1hbjEJcBN/BFXaO2UJp3sJKf/fP0l52fIz5KfefR0nVMjX+q5S+W9zfuOqnW7D6uVOw44gXNyNSKR8lLytmLOWqde/HvaiMvmJ1o+S70yZIr6Tb/xTo68ZGBwUvcfUmZZ6lAkI/HUMIY5jq4AfNUVANUAAbxyncE4QFvIhjQZyaaB+AtwqgBeUTuj4msMCgCAP660jmkvUDKSqy/GEIqMyts+3ADkKXWD/pfnGRgAAG/TO8niP9LTIeilkaFt8sPm6bxPSucFbmJwAAC8izTwkTiQZCTZMYwhhCLmqms3ABFrHIMDAOBdxi3ZnJTxlywX6WLJGEJ+2Bp+zQYgP2p3Z3AAALyJVMWUlM1k1GXEHMYQrlB8HQ+A/RQDAwDgPSRdU1I/k9G89bsZQ/iIsN3hWg9Asf0zBgcAwHtIKeVkJE2VcP3Dx64AIuaPr9kA3GOY32VwAFpKvaL6HWQHqdufjKSIlBS0Ygzh4ymA5jev2QAUVVZ+SjcFusgAAbyPlL2VLnVSAfCBTuWMCbiOVG2UipCJSvpfdNWNlxhD+FgGQNg+I2n/edeT9AhmkCCXkRKrkmct9dJlEZV664W0p4Us8GTv0U7552QkTbEYQ7jG/R81l+a1JJ0JUM4gQS4iBVJGLlivzly14Eqdf4w/ZAPpR5Fs0J85YyVjCC2kANqDWtkAWK8ySJBLPNN3rG5nu/ua9KoTupnPw91omQru06H7CFV17HRSxr9i7lrGEFrBeqHFDYBOBbyHAYKcOPH3HOlEVkvXvetJOgAyTuA2suncfeRkwoa/SV9X9Zu0lDGENjIA7J+3uAEoNGLfZ5AgyIhL35yxyomQbklndetdabjCeIHbbv9kjP8lHSTYeTiFfiCOIECj7NstbgCcTICweYGBgiDyRK9RamPV0TYXVPl/GC9wk6f7jFGHT9YmbPylL4BkCjCGkFIGwIeZAFFzOYMFQePlQZOdk3082nX4BGMGrvHCgIlJNfhZv+ew+qW+ymIMIc4MgPl5bUkHAvZnsCBoudTn6y/Fn0Ot+U2/8YydF69wNE/p9LjnAvJ+Og2brS7UNySc4z983joyVCDRAMB34tkAPMFAQVBo321YUqer/dWnOV15oCaDeG76TlyiJq/YqjbvO6rOXXx/I3e5sUn1GD3f1xuZstlrVHOC8/JE7TllxGYwPyCJOWc90uYGIBQZ+o8MFgSFScu3qGQlG4e3Kuc5izVjmTmkzLKc6LuPmq9Gzl+vlm7dpw6dOONEtrelYTrtzW/vR2rzL95cldipXzNFb4Ladx3GnIEkNwBD/6bNDUAHw7xVBwI2MmAQBHdxMqf/6zVUGTp9pXqy12jGNQUeeWu4+v3gKarP+EVq9KKNapk29AeO1yTd4vaKVu04qDrq3Hk/jMFz/cerfQnm+EtBoFeHTmUOQfKE7fonSktvyotHulrQRgYNgpBTnW5JpPbcdbvUwKnL1Rv2dKeCIB6CjzZcj+nxeN2c5pRTltP8/A171PaDx1Xt+Ysqk5KNXrR8lqfHpv/kpU7KXryqb7js3PXThwJSzgCImKvy4pWUC2TQIAgGKZHgv2TV0Niojp6qU1v2H3Ncu5OWb3Xud/uMX6yKK2apFwdOcgyjnzsKSl0E+QwvD5rk5JwPmLxMjVq4wdkMbdx7RB05VZtU05p0a+763U4+vdc8H3KtkUhRH+lBIZtLvseQngJAVt+4NwA6WOAxBg2CgBgEL0mC2MSLsEOfilfvPKjm6eeTDcOI+euca4Z3dRMXiTuIlM10shdeGDDByREXYyCGRE6DiUZ/y0bo/k5lTkCkBDbKz5Of++qQqc6pWe7e+01aouxZqx3X/IzVO9TSLfuceghy/SH9EZqbm5VfJGMs9fC9cHKW8ZWy0vFq5Y4DgclwAE9lALSPewMQMmJ/zYBBEJCWvhcuNaigSUoYiztZPpsYPKlxcAX5Z/n34kJO9X7dzzquDa+Ux5XNTzZO/XO0dySRnP4/WNP4zkJmvKG6ym/cGwCpCKiDBuoYOAgCcictxhDlpiQ+QLIFHnUprbPriLnq9NkLceXzL9lS5Vyr8D2FzAUAmifbrAB4bWMgaw6DB0HhNR1FnYgrFgVL4hVZtGmv+tW7YzPqbYonvU9qGMgdv3Si5LsJLjA5L1HlR+1ODBwELQ1twcY9WMMckATSbTtQ7UTRSyxFUQar5skVQ0zHT7TWYEp07HSdExz6KAWmwF3eSHgDoD0A/8HAQRARg7ApjqZAyD+SEMWqo6fUlJXbVNeRc50UUDfmkgRrStGi1mI1JKBS/j9K90JWKDZ/kvAG4CGj7AuhqN3EAEJQUwQlj18WZ1mkkd+CIJuc+gJjF29y6umLd8fN+fOMvkpY1kpq30G9KSifw2kfspz/HzUvFfYc+Zm8ZKSvAVYziBB0JL9dXMWS8oa8G9EvBldc6G/aM1S7ztlJ8ZMaA+JluN6mUWpBSBqldPejOBR4I//fXJSXrAqiZk8GEXIJ6QIom4E9R04q/ALZUY2uOyA1EqSSoJzuvdCUSer3SybBJ1NKZWMybslmJ5Ifow+eI2KVJL8BiNj3MIiQq0h9+R66SI5EbMvpDqVXUsdgt95oSb68FO4J63tyL3ZglMqHV9L6mj8ILqzQm4GXBmL0wev3/9a/J70BKDQGfYVBBPhgQ9BjhHMirVywQa3bfVjVna/HischMZ5b9h1Ts9fudKLlu+kgvWf7jstoZH66kKqJcp8/f8Nu9faYBaqDT5oOAUhTvyKj8ra8VKR/yFoGE+D6yIk1rPuzD9FlfGet2am27q9WJ2vP55SBv1DfoOMnTjtu++mrtjv39GIs5YTs9/a1TrMnovfBjxuAiLUkL1XpGsLdGEyAxHhAB6lJPIF4DAZPW6HGLN7o9CWQkq8SbCgle/1QPEdS3OT0LhXrpB+9uL6lb4C4xX9bOtH16HsAiPf+3w6nvAHIL7Z/xmACpB/pDigeBNkoSKVCMarSDEiaAlXMWetElE9avsWJQZACRsu37VerdhxUa3cd0huJI06zHulAKOlwOw4dd+6m5Z/l38t/X7v7kHMqlz8nf15+jjQeks2IBDpaM1c5Xf16jJ7v5Km/PGiyUylPjHoRp14Av2cA/DjlDUAHw7xV1wO4yIACAAD4Iv+/9onS0pvy0iF9DTCTQQUAAPDB6T9qjs9Ll3RBoJcZVAAAAD+k/8WeSdsGIGTE/ppBBQAA8D73FlvfS9sGQHoJF4StfQwsAACAhwmbW/PSLf2D32VwAQAAvJz+Z72V9g1AfsT+OYMLAADg4QDAYutf0r4BcNIBw+Y5BhgAAMCT1NxuzPt0XiakXQvjGGAAAAAv5v/bw/IypfxorCODDPBxpFVsR5rEAEC23f9h+/6MbQDe7w5oXmagIdcRgy9le6XMrtT6p2EMAGQ3+t+uv7vb4M/nZVJUBYRcRerjS73+lTsOqCbdF75ZN8yRrneMDQBk/fSfzup/LXoBiq0nGWzIJaQ5jjTPOVF77mPd8sboZj2MDwB4xP3/cMY3AHd1GvYNHWjQxIBD0Hmoa4UaptvfSlvcT6qxqVk93I1WuADggeC/sN1wj2F+Kc8NaVfDfAYdgoy4+mvOXVQtqe58PeMEAB5x/9tT89xSYcT+FYMOQeSBTuVq+urtKh69YU9nzAAg6xSGrV+4twHoNOTruihQIwMPQeL+TmVOgF+8qj1/Ub1uTmPs0rGA6QBLibVgLAASj/4v6lr6xTw3JS4HBh+CxNx1u1SikkyAeet3qxcGTGQM46R912Hq1aFT1YDJy9T0VdvVtgPV6uKly05mxeQVW9kIACTG6Dy3pdMB2zPwEBTEIKWqqmOn1aiFG9Qb1nTVrnN5zo+pjMGLpRNVr7EL1ZjFG9WqHQdVdc3ZNsex7kK9U1vhvpIy5iZA2+S7vgGQggP6GuACgw9BYP6G3SqdkiwB2RDIzy2fs0a9VTlPvTRwknO6LQyY6/6JXqOUEZvhnOgnLtui1uw6pI6drnO8I6no8Mla1X3U/ECNF0Bao/+jZq306cnLhnRVwBG8BAgCVUdPKbdU33DZMW6bqo6qBRv3qHFLNquh01eqnqMXqD9Y09Szfcc5KYZeMHwSF/FU79HqNe0hkeeLzVqtpmm3/eqdB9XB42dUw+XGjI/XniMnVadhs9kIAFwb/T80L1vSf/l/8hIgCGzZd0x5TZcbm9SpuvNqn/YkbNSbhaVb96lZa3aq8Us3O/UJhuhNQ79JS5xqhF1HzlXFFbPUm/YMx1j/fvAU9btBkx3k968MmeIELMpJvaRituOR6D1ukSqdskyVzV7juOhnrtnh/B2b9x1VB47XOK54L2nnoROqhI0AwEcUmz/J2gZA2g4WhM0jvAjwO+OWbFLIH9pz5JRzNVBE/wXI6eI/5l7DMG7My6byI3ZXXgb4ncferlSXXHBno/TpyKlax4Mh3RiZw5Bz7v+I/WZetlUYLftLXgYEgYFTl2NVfaiz+qpi7OJN6kkdq8A8htzI/Teb84vLv5PnBYUi1hJeCgSBCfp+HflTzbqOgBRykhgHrgcg0ETMWXleUWHUeoyXAoFIa9PYOtJdjAnyn6R/g3gD5EqH+QwBjv5/0DMbgCKj8jZdjrCOFwNBIVo+S52sPY9F9cPJX7Nu92Ens4HiQZAD7v+TWcv9b6VD4Hu8HAgSUrJ20vKteAM8quNnzqkxizaqp/uMYb5CLp3+u+d5TSEj9te8HAgiz/UbrxZu2qvYBmRfUhdB+gW8OmQq9QAgRzcAQ/88z4vKj5iLeEEQ5I3AHN0wiHRBd3VG3+tLi2bpsVBIcB8Q/OdNSWACLwmCjtTzl9K9B0+cwTpn6E5/1+ETauT89U4VQ4w+wIfke3YDcEfv3reEwvZxXhLkSsbAb3W3O7mHPqqb36DUTvmLN1epPuMXqV/2HMn8Arg2+O/IE6WlN+V5WfkRK8rLglzcDEjrW6mrL7X0pRsgalknas85jZD6T16qfv3eOO7zAdoO/ns9z+sKlZR9S3sBGnhhkDbjql3Aj78zSr08aJIK62Y2ku4lDXCkO538/g17unM//0Cnck9lEHQZMcfp9LftQLVqaMzduIEL9Q1Os6VJy7eoXroB0VNU7ANIiFDUvtjOqPhanh9UELVivDRIFKnpLh3rpCSvtJzduPeIOqFTveI9Tcv/t7/6tFPN72XdBc9Ln002J6/qLn1Dpq1Qs9fuclrcBm1TIOmSchUirYJl4yObtGf6juUOHyDl0781MM8vKopa/8BLg7YQ1+97E5eouTqyXgLqks23b2xqUtU1Z52T9vJt+9Xc9budqHFpj+vlz39fSUw913+848WQqwPZGMhJWVLdvCppUSxGfpNuTzx/w26nLbF05nu+/wRPeWAAgoX1V3l+EimB8Ek69hiheo1d6BjoZI2cGB8JFhOD2Un3hv/Vu2MDWff9/k5ljqv8Ne01kKsOc8YqNV57Nmav3elscsQAVx077dyln7t4KanURPFAyJ+Vd3H0VJ3arb0Sa3cfcu7mJdd++Lx1Trc92aD8TntUHtXBeZzms5N1wrjntPGfmec36QZBIV4cPKMNtNTWl9N5Mid8MfjT9XWAGKFf9CA6vK1ARDmFP9xtuHpU18KXevjyqxhuiayX8ZNN2ENdK2iW4yPEUyQVKTsPn8N45GTuv/UfvtsAGIZxYyhsbecF5h7SlrVs9mp9z30qqRxw2SzYM1epZ/uOYzwB5DvVa7Rq0F4e6XYoGzzGJGeC/zbkKXVDnh+VH449ykvMDdp1LncivCVwL5mbfCn8Ys5Y6UT7M54A1yJXZ6LDJ2ud+BnGJCdS/x7M86ukMJD+EId5kcF28U9ctsW5S05UdRfqnT8rKXyMJUDrSMDsFUnQrGTNMC6Bpup2Y96n8/wsfX/xEi8yeEhw2qodB5O61z94/IyzmD3QmahxgHiRANqrNXbxJsYlyBTHnsnzux4yyr6gP0wNLzQYRMpmqq37q5OK4JdTi6SMUfUNIHGkvsXV2l9dw7gE9e5fl9S/0yj9bF4QpNMYIrxUfyPtVyX1LNlKcIN0cR8izwGSQypLSr+ET36vGJuA3v1H7FfygiJ9V/XlUNSs5cX6DwnKW6jzwpPVjkPHnawAxhIgeaTo0iclnjjGJoCEzZN3dxv8+bwgiSZB/kOKwFy41JC08V+/5zD3/AAp1naQGgDXU5/xixmjQEb+W6/mBU2FxqCvFITtOl6w95HCMWK8U1Hd+XqnghnjCZAcUrxJ+ipcT5z+A5v3fypwp/+rMgJKeMne5veDp6iTtanXopf6/ownQOJI5b8Bk5c5abLX04HjNVTFDG7e/+t5QZV4AYgF8HaEfzI15a+ndbsPM6YACSBlnCU99sip2ha/V/t0/wfxDDBewTz9S9ZcXpCloxvf5GV7D2nD23A5ve1pe+vKgIwtQOtIISxp9FR7/mKr36eZa3Y4FTcZs8Ce/l/OC7rkfkNyHHnh3rprPH32Qvr7w2um6UY+HbqPYJwBPmH0K3Qr5b1H2+6XUaO/m1I/g3ELNIcLe478TF4uKBSxn+eFewfptpdJXbx0WU1duU29OHAS4w05iQTE9tBGXNo5nzhzLr52zdojN2bRRqd7I2MY8GyPYuvJvFxRB8O8VWcEHODFe+PeMd2u/9YkHQKlKJC0qmX8Iag80WuUekeX7p2+ertTsS+RgtmXG5ucINqnqJ+RI3f/5q4nSktvyssl6Q/+S15+9vlt6USVDcmCuPPQCVU+Z436Dc2AwOdXaJ2GzVYj5q9z+mMke50mnrIJujkWHTFzrfCP1S4v1yRdjnQswGYmQHaRU4YXdKruvFqgKw5KFDQnH/Ai0n3vJX2N9e6ExU4Xy/V7jqiacxdTnvuHdI8Me+YqV+tmdOwxQnUkNscDWGsMw7gxLxcVKjbvYAJkv9JYPIFI2dgQLN+2X5XNXqOM2AzuQcGlu9iYswEN6zk3cMpyNWXFVqcoltzbN6dxftc3XFbz1u92sm/crzNQplZuP+B8Vt55ludbxL49L5elAwJnMBGClwKY9isD3XZY8qNlUzBy/nr1VuU89WzfcSxikFRAngSkdhs5Vw2dvtIx8lJx7/DJWtXQmLnvgdzty9/TZ/wi1b7bsKzF/Ijxl+s35kKWiVjj8nJdhdGhf6MLIDQxIbJLib7DlO5ifpMs2AePn1Er9KI2bslm1W/SEvUHa5oThMXmIPd4uNtw9Xz/Caq4YpZznST38pI/L4ZXgvFS6W2R7Pxcu+uQ6quvDbJdGvtRHXi74+Bx57nsWauZL1nFvHyvYf9FHtLFgcL2ICZE9nmy12i1dvchFRQ1NjWpY6fr1EbdxliiqsUYyAZBNjsv6uBHuQflvXvfJS/vSfLm37CmO/nw0qRq5IL1jmGXjZ90nKyuOZu2KpapSkppy7N11R4GiRvwwjjKhqjmg+BE+V5QSjjbp3+7F5b/AxUZ5jdpFOQdXhs61TkxNavgS05oYjx2HT7hfGbZKIgnQYKypNuabBZeHTJV/fq9cU60t9RpZ44kHmci/ezFK/PCgAnOlZNEzUuanKSEDp+3zul4Jy1v5R1s16fUgzowThpKydWP1yX3+RIQKBktklXjtesOqT3wsT4dOvaAeZnNtD/71L2d7a9i+T/eKOglJof3cpnFEO4+clKhj6drnag9p13Kpx1jJX0Plm7Zp+bozcNkfZ88auEGJ3hxyLQVjsdBDJ2cBqPlMx3j9/KgSY4hlBiGJ3XAmbhmZaGW06JbGww5Wct9sARXyt8tmxvxAD3Td6zjQpdnfFVvBCUAs6RithNzIaWd+09e6tybV8xZ63xOSVuT0+5CncEhd8vibZHNlBhwGaNzFy/5wogntGnUnoZN+nPKxkXe5/2dyjzpOek3aak684ksBXkf9BLIcsnfYutpLP41XoDKm/XgbGOCeBMp3COGbNaana02K0HpC3qUoDE5Xcq9tSzcsphL2pm4ciXXXDIlriBuZzG48nv57/L/SW156Sh3ViN/XjYu4vEImkF2IyNl2dZ9zr25GHzZOHnZ2yLBjdIx8HqSTQHrWRaNf9ReV1RZ+Sks/nUzAmL/xiTxT7DVG/Z0Zc5Y6aQz7dFeArcDrBBKt2QOb91fra8ktqieoxc4XhG/xErI81a1ktIrnhrWrixvACLmj7H0rVcIHMtE8ben4E17htPPXIqlyJ2ueAwamzh1Im9JPCRyfTN28SbHeMr1R6HPvm9yhSNXTUd1sGtrkloGxK9k+e4/bJdh4dvQPYb5XR0kcZEJEyyk+IgE0nUZMcdxpcpVgtwXSwAemwOUSck1iJzq5QQ8RMcvRMpm+r4XxQsDJjpNvOJJ3ZVNDoW0sl7v/2yopOxbWPh40gIj9itMmlzaHMTU033GOAFnkrstwWUSVCYBdnL/yvYAxROYJ/UgVu444HieJFVQPFFBCniT0r0DddZEIkG5cj0nm2/WmSxvAIrtX2PZ45R0RtKFEjYxccCpXta53PEeSDS6BDFJJUBJbZICK/uOnXaC3FDwgyJlMyiFbBZvrtKpmpucjATZNMo9fWFA575khkjwrWRYSP5+vJL/VzJRWD88YPwj5ioC/xKNBSiO/TOTB+Klnd4kPPPuWCcwsZdeMGP6mkFS8iQ9b/O+o87p0C955bkmMVaSxSDpg9JNT1z1w+audUrmSvEf8Q7l0ilW0jIl5VIyD5IpbiQljV8eNJl1wRs5/1Ll9u+w6MlsAsJ2KZMI0kmRjpZ+VLuF5Q41rO+C5XQlee1jFm10vApSWW7LvmOOZ0EawJDZkNxpXbwyYojkxC6BoOKKFte8nEqlm160fJbzDqTKXyHz0qkJYemaGxIXk8hJ/5MbKRljr1QfBIn6t9/GkicpPZG/rHslH2MiQbY3DXL/KlHiv9MnKynoI1HjkulQNnu1qlywwVl4rxTEkU3Ehr1HHOMnxYKkHLHk8EtOf7OHjbY8nwTMyWlcMjdkEyRldiWCfOnW9wsdScU++bxSIEpc8G+PWeBczUjRILmmkXGiB0PbSDMgKQ41ffV2Z36kKnlHv9HlkhlbDxG2D+j6NrdhyVOpDRC1CplMELSgRzmliav30asq8D3Xf7zTb/6VIVOchkbioZDNhtRxFyMrZYk7D5/jINkUYkCk6ItU6ZMa+fKr/Hv5/+TPyf24/Bwxzr8fPMX52XLqlrr64laXCoRSz8GLleyCeJcv2QdjFm90OvE1pekqSq5NZD4wxp4s+vOfWPD01AYYzYQCAL8g2QeyQZuwdLNjpNOd6iqeGdnoMdYeNf5h28Zyp0l3dRr2DWmgwMQCAK8hHhTxsAzWBXkW6CugdLj0W7rjlwwIKUfMuHvZ9W8dKzQGfQXLnUYVhs2HmFwAkG1jL42SJB1V7u/ldC89GzKp4zoYVVpZP+rz4kW5k/ZnhbDY6ZZSNxRErYlMMABwAzG4kq0gAY/SqnivrrOfaWN/RdK8SaplShokWRJ+uve3KjHWmQoI1KUUuQoAgHQiZYHDOmBSXPgzVu9QW/Yfc/oEuC1JnZSNhgR2ernjILSEWR0yYn+Epc7kVUAkVsREAyn8I9HPvy2d6FQKZEygreI6ck8vaYtSSXLhpr3vd7Csz26dB4kXmLJym5OxQbMev+f8x+7CQrvhCdBdlZhw8Pg7o5yGKNLnXhZSyYWepv9ZCvvI5kDS6iiKkjvloiUPXtIlpT6DdPiTgDmpmy/udK/ofP0ltXzbfqdXgVSu5N0FxvU/EMvsknTHwC9pd8tBJh4IHXTxGXPGSlWlC9dcTzW6CI+kTUlZYEnLkvapkqIlRX3E/UvhGm8jtQrEuIubvpcukSvVBGWjJ41/9hw5lRV3fSIth6UwlFT5Ew9EEXMtiOyh4I/bXoDi2L8y8eCTiKEYPm+dE53dHHd6VbNT/U5Oi1K2VkoCS0fCQbrzmlT8E/fsCwMmOLnduGnTUwhJAuxkTKVjXw9dxEhOxOKal8h6OSFvO1Ctjp6qc6oT+qmngWxIpCJkv0lLqMyXCxH/utZ/fsT8MRY5C9KVlrozCaHFKG5tsOXEOFeXsE1XbnbzB25c+XmyyVi7+5DjapZFXzrUyel04JTlzt8rVfnEwEkFPimTK1cWcpr18ylQgtPkPv3J3qPV8/0nOFULpWKhBK5Jjf8h+vpFNmDiaZEodikhvFGXRZYI+uqas86dexDaMUmTHtkwSnlk8Si9OmQqsSi5STGWOEvSbpebpdUikxDijfaW0+YEXbdfIr2z2einobHRuZuWFrdH9WZif3WNs6GQk680hJFWx9ICdsmWKidgTZrpzF67y4lSl6Ax6XQ4afkW57OM18ZW7rxlA/JJ5L9JnwKp4S9/TmImZLMimyIpWiObF+k6J134JIZCxkWeQ65TDp044zREEje208cgBzspyqn+oB4H8UqM1g2jJIhQTva48kGz+HZj3qexxNnMCjBi3w9FzbNMRkgUufuXk7m4+cXlL3e10gSniZbBOde98ETtOadttFz/lM9Z4/RVEEOfS22IISFq8ovLv4MF9oB0gaD2TEhIZ7U3cW+LEZBuf+LKFje2uLDTXdMduWPgJcZju+7OuEh7U8RbItc0nXQtfTHy5NxD4il/ZgGW10vxALr5AhMT3PAaPNFrlFOPXdzBsVmr1RTtjpe7bnHfS2yAnwLX/CypyieGXQLv5Mpkrr4mGaPd9BK8KTEJEnUv74rATUiv8bcHYHG9Fw9wW0HY3MoEBS/wUNcKJ89bWvFKMGDfiUscb4Lcy8sd/JXgOAkkO3yy1klVbNCBZbko2TCdPnvBiTmQ+IP1e444KZsS7yAGXUrx9tUBhl1HzHU2XnJtI4GIzDPIQtT/hjuN0s9icT0ZD1D2A/2SzjNRwb8pcmWqo65r8NQnouzF+PUau9BJL5MTrq09DxJtL/3lJcBP0uckSHD+hvcD+yRoTVIaJbBPNhpyv711f7XjBpd+9LLx2PMxTl3FSccQS+0E8WrIn5M/Lz9n3e7DTsCg/Hz5eySQUCLhxVjLc8jzSOMa8YxIaV1pmiPPLc8vefxyKpcCTfL55HNyOgf/GH+zNj869M+xtN5ODXyQyQoAAGkmHwvrh6DAiN2PyQoAAOnB7Ill9Ynu6N37FuoDAABAyq7/iLXkidLSm7CsfroK0Dma+VHzBBMYAACSDPo7ercx+I+xqH68Cig2fxIKm41MZAAASMj4h+2Gwoj9Iyypnz0BEetZJjMAACRU8yNqPYYF9buUukFnBgxlQgMAQFzoQHKMZ0DUwTBv1Tmcy5nYAADQeqU/c5E0msNyBkihkrJvFYTtA0xwAAC4/r2/ubew05CvYzGDuAmIxn5I50AAALhepT+pJoulDHJmQNS+U/cMaGbCAwDAByf/xlAk9m9YyJzYBFgvMOkBAOCDoL+nsIw5lRlg9WfiAwDkOtY7GMUc0+3GvE/rFz+RyQ8AkLMn/1GGYdyIRcxBte8e+xzpgQAAuRj0Zy2UFHEsYQ5LUj70JmAXXwgAgBwhbG4tNAZ9BQuI8u4ttr6n2z1W88UAAAi88T9SZNh/iuVDH6ooav2DLhRUxxcEACCw1BQY1v/C4qFrrwMi9u16E1DPlwQAIHCcLyiO/TOWDrWo/EjsLloIAwAEqdCP3ZAfsX+OhUNtSqcHtudLAwAQiDv/5sJIrAjLhuLfBBTHnuHLAwDg9w2A/TgWDSV+HRC1X+QLBADgT/Ij1rNYMpTCJsB6lS8SAIDfjL/9WywYSscmwOALBQDgG+P/CpYLpUdO8yC7E18sAADPG/83MVoo7ZuAgohVwhcMAMDDxl+v1RgslJnrAD3B+KIBAOD2RwQGAgAAAX8odzYBpAgCAJDqh3JSFAsCAMhihb+o9RiWCGVNhWHzIXoHAAC4h9T2p7wv8khgoG4gFLUv8sUEAMg452nsg7zlCXi/lXAdX04AgIxRQ0tf5EkVRa1/KIia1XxJAQDSfud/pMCw/heWBnlW9xZb3wtFzV18YQEA0mb8txYZ9p9iYZD3rwM6Dfm63gQs54sLAJBiwF/UWlhoDPoKlgX5RncapZ8tiFoT+QIDACRJxB7VwTBvxaIg3+l2Y96nddXA/nyRAQASxXrHMIwbsSTIv9KNKUIR+3kpWsEXGgCgrRx/XVclYj+F8UCBkZ7Yd+q4gLN8wQEAWizwcyYUif0bFgMFbxOgU1h0rYADfNEBAK45+e8tNMp+gKVAgVWRYX6TDAEAgI/Ij5iLJHsKC4ECrzt6974lFLaG8MUHgJw3/lHzvSKj8mYsA8qp4MD3uwmal1kEACAH7/sb6OaHclrSQ0DvgE+wIABALpX11Wvfj7AAiLgAXeJSfylWsjAAQOBP/hFryd3G4D9m5UfoqriA/IjVlwUCAIKL2fOJ0tKbWPERuo7yo/aDOh3mHAsFAASnnr9Zq3/NZ4VHqK24AJ0LK92vWDgAwP/G396QHx3656zsCMUdF1B5W0HYMllAAMC/+f32AGmMxoqOUJJXArp6YB2LCQD4iBpd3KeAFRyhFHVvsfW9UMRcxaICAD5gcX5x+XdYuRFK35XAzQUR6y26CgKAR+/6m/SvxdIGnRUboUxcCUSsn9JQCAA8xh7t8v8xKzRCmfYGdC39Yn7Ytll0ACD7tfytgXd3G/x5VmaEXPUGmAX6SuAkixAAZKGoT3V+JHYXKzFCWVKopOxbupfAeBYjAHCxkc/IkBH7I1ZghLIt3VmwMBp7AG8AAGS2iY91jIp+CHnRG6B35NotN4KFCgDSftev444KjUFfYaVFyMsbgYgV0ik5R1m0ACD1U799QBck+09WVoR8IidTIGq+R90AAEg+r9/sKWXJWVER8qEKIrF/kmYcLGgAELfx15VHQ0bZ37OCIuRzSf9tXUXwJf3FPs/iBgAtn/rNs6Fi+9dFlZWfYuVEKEC6p3jon0j6DgsdAFyLFZO0YlZKhAIsKSesNwKbWfAAQAf4raOML0I5di2gS3g+p11+tSyCADkZ5HeqIGI/hbsfoRyVUzsgYvcLhc1GFkWAnCjhe1l/53vd29n+KisgQiiv0Cj7gV4cJrM4AgSYiDXuXsP+C1Y8hNC18QHF9s9IGwQI3D3/6sKIfTsrHEKoVcmdYGHUekQvHFUsngC+ruK3W9fvb2cYxo2sbAihuHVH79636IyBZz9oAMJiCuAfDhcWW09KsC8rGUIoabXvHvucvjt8TacOnmFhBfB2ZL92979c2HPkZ1i5EEJp04NdKr6so4fDbAQAvJjSZ732kFH2BVYqhFDGdI9hfknXEDD0wlPD4guQzTt+86T+Lr56d7fBn2dlQgi5Juk4qBehN5zTB4sxgItR/eaJ/Ij9CoYfIZTdjYBuFxqK2M9L33AWZ4CMUlVQHHvmTqP0s6w8CCHPSCKOJX0wFLW2sFADpPWOf4Ok891uzPs0Kw1CyLOSnOP8SOwuvXDNZfEGSKlD30wd3PcfeUrdwMqCEPKVQtHYD3Va0lDddOgSizlAXKf9izqwb6Du0/HXrCAIId/rrk7DvqGDlt6kqBBAixH9R/Rm+fXCTkO+zoqBEAqcdMDgzdqteR/XAwBXufmjdj5V+xBCOaN8w/wfevF7h3oCkJv5+3b3/OjQP2clQAjlrCSlyckeiNjzMA4QYKPfXBAxZ2nD/2AHw7yVbz5CCH3MKzDkz3QDoqgOGtyP0YBABPWFzb1SMKvIsP+UbzhCCLUhJ5Ww2P5Zfti29WbgLIYE/BXJb9ZK9ktBsfkTWvEihFAqVwSRWJEufzpeNyJqwMCAN138dr1uljUqFLFCuPgRQijNcjoShu3HJXJau1YbMTyQXfe+3aBP+lMLw9YvpDcG31CEEHJBhcagr+RHYx31QjyZQkPg5klfvFH6euph6YzJNxEhhLIoOX1JdLU+kY2U+1cMFaSZGl2hb5g2+vfTgQ8hhDwqKaiiMwl+WhA1e2p2YLwgybS9rboO/1v5xda/0IQHIYR8qHsN+y90/vVv8iPmJDIKoPXIfXO8tNu9t9j6Ht8chBAKkKQUsZzo9IJfrBf85dqt24Txy9n8/EYdsb9ER+6HtdH/Z075CCGUQ3rIKPtCqNi8Q2cVdBFjQJphoE/4l0JRa6F265cUFFv/rjeDt/ENQAgh5EhqDoSKY/+q27Eakt6VHzZPYzz9W29fMkSkCp8U5CnsOfIzzHCEEELxSakbJIZAehVoV3E/7SlYQ8qhN1PzQhFzlQ7+7KvfUftCI/Z9eXdMYIQQQmmTxBGEorEfSg0C7SXo7biVw3Ydhti14jtndLDefOkkKRuzwujQv6GVLkIIoax5CqTZi8QT6E3Bi6GwNUSCDNkYpGzol+rc+0Ha2L+QH7F/HjLKvs3JHiGEkC82BqGSsm8VRMr+r5SLdQLQouYIvUlYLcVlct3IS4yF47oPW8MlM0NvmDrodM0fFxnmNzH0CCGEAiupKldolP3AyUTQPQ4+aIVshSL2DL1JWKcD2Y74s+eBeVn/elg/+1r9++kFYcvUp/iIdtk/JhH490bt/0kUPkIIIdSKpJ3svZ3tr8pGoTBi366DEe+R+AO9SXjeyWGP2L2kbbI2uKOdzAXnftxeqQ3vJv3rnvc3EfZxXfPglLjVtVE+p39/UYy0pD3K76VAkvPf9P+j/321/Bnnz+qfoV3vK/TfNU9+tvN3yN8lf6eTKWE9J6d2eSZ5NjHs0qOBFrgIeV//P1wtILv7k9UeAAAAAElFTkSuQmCC;" parent="yeOD9b_5iuS_1soYfSaR-7" vertex="1">
          <mxGeometry x="312.4488888888888" y="9.968231046931578" width="16.818396599235225" height="16.818396599235225" as="geometry" />
        </mxCell>
        <mxCell id="9p9Fck6Mg8pQs2x9gp-Q-32" value="" style="endArrow=classic;html=1;rounded=0;exitX=0.997;exitY=0.588;exitDx=0;exitDy=0;exitPerimeter=0;" parent="yeOD9b_5iuS_1soYfSaR-7" edge="1">
          <mxGeometry width="50" height="50" relative="1" as="geometry">
            <mxPoint y="59.513999999999896" as="sourcePoint" />
            <mxPoint x="147.36" y="60" as="targetPoint" />
          </mxGeometry>
        </mxCell>
        <mxCell id="wB9kvgKTOWAu8OEonzzt-1" value="2" style="ellipse;whiteSpace=wrap;html=1;aspect=fixed;strokeWidth=2;fontFamily=Times New Roman;spacingBottom=4;spacingRight=2;strokeColor=#000033;labelBackgroundColor=none;fontSize=19;fontColor=#000000;fillColor=#FFFFFF;align=center;verticalAlign=middle;fontStyle=1" vertex="1" parent="yeOD9b_5iuS_1soYfSaR-7">
          <mxGeometry x="120.36000000000001" y="75.50000000000023" width="25" height="25" as="geometry" />
        </mxCell>
        <mxCell id="yeOD9b_5iuS_1soYfSaR-8" value="" style="endArrow=classic;html=1;rounded=0;exitX=0.997;exitY=0.588;exitDx=0;exitDy=0;exitPerimeter=0;" parent="1" edge="1">
          <mxGeometry width="50" height="50" relative="1" as="geometry">
            <mxPoint x="-287.64" y="-1920.4859999999999" as="sourcePoint" />
            <mxPoint x="-140.27999999999986" y="-1920" as="targetPoint" />
          </mxGeometry>
        </mxCell>
        <mxCell id="yeOD9b_5iuS_1soYfSaR-98" style="edgeStyle=orthogonalEdgeStyle;rounded=0;orthogonalLoop=1;jettySize=auto;html=1;dashed=1;dashPattern=1 4;entryX=0.993;entryY=0.581;entryDx=0;entryDy=0;entryPerimeter=0;exitX=0.017;exitY=0.575;exitDx=0;exitDy=0;exitPerimeter=0;" parent="1" target="9p9Fck6Mg8pQs2x9gp-Q-28" edge="1">
          <mxGeometry relative="1" as="geometry">
            <Array as="points">
              <mxPoint x="68" y="-1913" />
            </Array>
            <mxPoint x="67.9090000000001" y="-1914.5" as="sourcePoint" />
            <mxPoint x="-49" y="-1913" as="targetPoint" />
          </mxGeometry>
        </mxCell>
        <mxCell id="yeOD9b_5iuS_1soYfSaR-253" value="" style="group" parent="1" vertex="1" connectable="0">
          <mxGeometry x="30" y="-2430" width="490" height="1030" as="geometry" />
        </mxCell>
        <mxCell id="yeOD9b_5iuS_1soYfSaR-257" value="" style="rounded=0;whiteSpace=wrap;html=1;shadow=0;glass=0;sketch=1;fillColor=#E8FFE9;gradientColor=none;" parent="yeOD9b_5iuS_1soYfSaR-253" vertex="1">
          <mxGeometry x="-10" y="-4.3933649289099534" width="500" height="1034.39336492891" as="geometry" />
        </mxCell>
        <mxCell id="3bcxf0YdrUw6BaNFdLOa-47" value="&lt;b&gt;Request&lt;/b&gt;" style="text;html=1;strokeColor=none;fillColor=none;align=center;verticalAlign=middle;whiteSpace=wrap;rounded=0;sketch=1;fontSize=15;container=0;" parent="yeOD9b_5iuS_1soYfSaR-253" vertex="1">
          <mxGeometry width="100" height="15.425646060101032" as="geometry" />
        </mxCell>
        <mxCell id="3bcxf0YdrUw6BaNFdLOa-48" value="&lt;b&gt;Response&lt;/b&gt;" style="text;html=1;strokeColor=none;fillColor=none;align=center;verticalAlign=middle;whiteSpace=wrap;rounded=0;sketch=1;fontSize=15;container=0;" parent="yeOD9b_5iuS_1soYfSaR-253" vertex="1">
          <mxGeometry x="248" y="1.209967032967078" width="97" height="13.642234935680428" as="geometry" />
        </mxCell>
        <mxCell id="yeOD9b_5iuS_1soYfSaR-258" value="" style="group" parent="yeOD9b_5iuS_1soYfSaR-253" vertex="1" connectable="0">
          <mxGeometry x="5.45" y="18.21" width="242.55" height="240" as="geometry" />
        </mxCell>
        <mxCell id="3bcxf0YdrUw6BaNFdLOa-46" value="&lt;h1&gt;&lt;span style=&quot;font-size: 18px&quot;&gt;User performs a request&lt;/span&gt;&lt;/h1&gt;&lt;p&gt;&lt;font style=&quot;font-size: 12px&quot;&gt;User performs a consulting/saving/updating/deleting a purchase.&lt;/font&gt;&lt;br&gt;&lt;/p&gt;" style="text;html=1;strokeColor=#808080;fillColor=none;spacing=5;spacingTop=-20;whiteSpace=wrap;overflow=hidden;rounded=0;fontSize=12;align=left;dashed=1;container=0;" parent="yeOD9b_5iuS_1soYfSaR-258" vertex="1">
          <mxGeometry x="38.58" width="203.97" height="240" as="geometry" />
        </mxCell>
        <mxCell id="3bcxf0YdrUw6BaNFdLOa-49" value="1" style="ellipse;whiteSpace=wrap;html=1;aspect=fixed;strokeWidth=2;fontFamily=Times New Roman;spacingBottom=4;spacingRight=2;strokeColor=#000033;labelBackgroundColor=none;fontSize=19;fontColor=#000000;fillColor=#FFFFFF;align=center;verticalAlign=middle;fontStyle=1;container=0;" parent="yeOD9b_5iuS_1soYfSaR-258" vertex="1">
          <mxGeometry width="40" height="40" as="geometry" />
        </mxCell>
        <mxCell id="foRurIiSs3FXDg28y3I6-3" value="" style="group" vertex="1" connectable="0" parent="yeOD9b_5iuS_1soYfSaR-253">
          <mxGeometry x="240" y="220" width="242.55" height="160" as="geometry" />
        </mxCell>
        <mxCell id="foRurIiSs3FXDg28y3I6-4" value="&lt;h1&gt;&lt;span style=&quot;background-color: initial; font-size: 18px;&quot;&gt;Application responds&lt;/span&gt;&lt;/h1&gt;&lt;h1&gt;&lt;span style=&quot;font-size: 12px; background-color: initial; font-weight: normal;&quot;&gt;Application saves/updates/consults/deletes in the database and respond..&lt;/span&gt;&lt;br&gt;&lt;/h1&gt;" style="text;html=1;strokeColor=#808080;fillColor=none;spacing=5;spacingTop=-20;whiteSpace=wrap;overflow=hidden;rounded=0;fontSize=12;align=left;dashed=1;container=0;" vertex="1" parent="foRurIiSs3FXDg28y3I6-3">
          <mxGeometry x="38.579999999999934" width="203.97000000000006" height="160" as="geometry" />
        </mxCell>
        <mxCell id="foRurIiSs3FXDg28y3I6-5" value="2" style="ellipse;whiteSpace=wrap;html=1;aspect=fixed;strokeWidth=2;fontFamily=Times New Roman;spacingBottom=4;spacingRight=2;strokeColor=#000033;labelBackgroundColor=none;fontSize=19;fontColor=#000000;fillColor=#FFFFFF;align=center;verticalAlign=middle;fontStyle=1;container=0;" vertex="1" parent="yeOD9b_5iuS_1soYfSaR-253">
          <mxGeometry x="248" y="220" width="26.21" height="26.21" as="geometry" />
        </mxCell>
        <mxCell id="wB9kvgKTOWAu8OEonzzt-6" value="" style="group" vertex="1" connectable="0" parent="yeOD9b_5iuS_1soYfSaR-253">
          <mxGeometry x="31.660000000000004" y="420" width="242.55" height="240" as="geometry" />
        </mxCell>
        <mxCell id="wB9kvgKTOWAu8OEonzzt-7" value="&lt;h1&gt;&lt;span style=&quot;font-size: 18px&quot;&gt;User performs a request to the service&lt;/span&gt;&lt;/h1&gt;&lt;p&gt;&lt;font style=&quot;font-size: 12px&quot;&gt;User performs a request to the exchange rate API. Application finds purchase in the database and then enhances its information with the information provided by the mentioned API.&lt;/font&gt;&lt;br&gt;&lt;/p&gt;" style="text;html=1;strokeColor=#808080;fillColor=none;spacing=5;spacingTop=-20;whiteSpace=wrap;overflow=hidden;rounded=0;fontSize=12;align=left;dashed=1;container=0;" vertex="1" parent="wB9kvgKTOWAu8OEonzzt-6">
          <mxGeometry x="38.58" width="203.97" height="240" as="geometry" />
        </mxCell>
        <mxCell id="wB9kvgKTOWAu8OEonzzt-8" value="3" style="ellipse;whiteSpace=wrap;html=1;aspect=fixed;strokeWidth=2;fontFamily=Times New Roman;spacingBottom=4;spacingRight=2;strokeColor=#000033;labelBackgroundColor=none;fontSize=19;fontColor=#000000;fillColor=#FFFFFF;align=center;verticalAlign=middle;fontStyle=1;container=0;" vertex="1" parent="wB9kvgKTOWAu8OEonzzt-6">
          <mxGeometry width="40" height="40" as="geometry" />
        </mxCell>
        <mxCell id="QwCkC_A-7S9606_Y1J6d-1" value="1" style="ellipse;whiteSpace=wrap;html=1;aspect=fixed;strokeWidth=2;fontFamily=Times New Roman;spacingBottom=4;spacingRight=2;strokeColor=#000033;labelBackgroundColor=none;fontSize=19;fontColor=#000000;fillColor=#FFFFFF;align=center;verticalAlign=middle;fontStyle=1" parent="1" vertex="1">
          <mxGeometry x="-672" y="-1948.9999999999998" width="25" height="25" as="geometry" />
        </mxCell>
        <mxCell id="Z2G4G56m6bnonDENbGcb-26" value="" style="group" parent="1" vertex="1" connectable="0">
          <mxGeometry x="600" y="-1791" width="348.1600000000002" height="199.88425587239098" as="geometry" />
        </mxCell>
        <mxCell id="Z2G4G56m6bnonDENbGcb-32" value="" style="group" parent="Z2G4G56m6bnonDENbGcb-26" vertex="1" connectable="0">
          <mxGeometry x="-680" y="-178.46000000000004" width="75.16000000000022" height="98.34425587239102" as="geometry" />
        </mxCell>
        <mxCell id="Z2G4G56m6bnonDENbGcb-33" value="" style="group" parent="Z2G4G56m6bnonDENbGcb-32" vertex="1" connectable="0">
          <mxGeometry x="-32.94230688833477" y="-11.225249237029402" width="108.102306888335" height="109.56950510942042" as="geometry" />
        </mxCell>
        <mxCell id="Z2G4G56m6bnonDENbGcb-34" value="&lt;div style=&quot;text-align: left&quot;&gt;Purchase API DB&lt;br&gt;&lt;/div&gt;" style="shape=cylinder3;whiteSpace=wrap;html=1;boundedLbl=1;backgroundOutline=1;size=15;verticalAlign=middle;fillColor=#F7F7F7;strokeColor=#CC0000;&#xa;cvcIconId=13;&#xa;cvcArchtectureLayer=&quot;data&quot;;&#xa;cvcLandscapeLayer=&quot;relational&quot;;&#xa;cvcTechnology=&quot;oracleDb&quot;;" parent="Z2G4G56m6bnonDENbGcb-33" vertex="1">
          <mxGeometry x="-26.787693111665227" y="15.995249237029402" width="60.371309397235635" height="77.58620689655157" as="geometry" />
        </mxCell>
        <mxCell id="Z2G4G56m6bnonDENbGcb-35" value="" style="endArrow=none;dashed=1;html=1;dashPattern=1 3;strokeWidth=2;rounded=0;entryX=1;entryY=0.75;entryDx=0;entryDy=0;" parent="Z2G4G56m6bnonDENbGcb-33" edge="1">
          <mxGeometry width="50" height="50" relative="1" as="geometry">
            <mxPoint x="32.94230688833477" y="21.68524923702944" as="sourcePoint" />
            <mxPoint as="targetPoint" />
          </mxGeometry>
        </mxCell>
        <mxCell id="wB9kvgKTOWAu8OEonzzt-2" value="" style="ellipse;shape=cloud;whiteSpace=wrap;html=1;" vertex="1" parent="1">
          <mxGeometry x="-170" y="-1810" width="120" height="80" as="geometry" />
        </mxCell>
        <mxCell id="wB9kvgKTOWAu8OEonzzt-4" value="" style="endArrow=classic;html=1;rounded=0;entryX=0.13;entryY=0.77;entryDx=0;entryDy=0;entryPerimeter=0;exitX=0.453;exitY=1.013;exitDx=0;exitDy=0;exitPerimeter=0;" edge="1" parent="1" source="9p9Fck6Mg8pQs2x9gp-Q-28" target="wB9kvgKTOWAu8OEonzzt-2">
          <mxGeometry width="50" height="50" relative="1" as="geometry">
            <mxPoint x="-590" y="-1640" as="sourcePoint" />
            <mxPoint x="-540" y="-1690" as="targetPoint" />
          </mxGeometry>
        </mxCell>
        <mxCell id="wB9kvgKTOWAu8OEonzzt-5" value="3" style="ellipse;whiteSpace=wrap;html=1;aspect=fixed;strokeWidth=2;fontFamily=Times New Roman;spacingBottom=4;spacingRight=2;strokeColor=#000033;labelBackgroundColor=none;fontSize=19;fontColor=#000000;fillColor=#FFFFFF;align=center;verticalAlign=middle;fontStyle=1" vertex="1" parent="1">
          <mxGeometry x="-287.64" y="-1859.9999999999998" width="25" height="25" as="geometry" />
        </mxCell>
      </root>
    </mxGraphModel>
  </diagram>
</mxfile>
